M48
INCH,TZ
T1C0.025
T2C0.032
T3C0.040
%
G90
G05
T1
X3775Y-1475
X3875Y-2150
X4350Y-3375
X4975Y-1475
X5500Y-1500
X6700Y-3325
X7900Y-3275
T2
X2300Y-1050
X2300Y-3050
X8425Y-1375
X8425Y-3125
T3
X3200Y-1350
X3375Y-600
X4375Y-600
X5375Y-600
X6375Y-600
X7375Y-600
X8375Y-600
X9525Y-1050
X9525Y-2050
X9525Y-3050
T0
M30
