G04 #@! TF.FileFunction,Copper,L1,Top,Signal*
%FSLAX46Y46*%
G04 Gerber Fmt 4.6, Leading zero omitted, Abs format (unit mm)*
G04 Created by KiCad (PCBNEW 0.201511011201+6288~30~ubuntu15.10.1-product) date Wed Nov  4 22:56:01 2015*
%MOMM*%
G01*
G04 APERTURE LIST*
%ADD10C,0.150000*%
%ADD11C,0.254000*%
%ADD12R,0.889000X1.016000*%
%ADD13R,1.143000X1.397000*%
%ADD14C,1.778000*%
%ADD15R,1.778000X1.778000*%
%ADD16R,1.016000X0.762000*%
%ADD17R,1.397000X0.508000*%
%ADD18C,1.397000*%
%ADD19R,1.498600X1.300480*%
%ADD20C,1.168400*%
%ADD21R,5.842000X1.778000*%
%ADD22C,0.889000*%
%ADD23C,0.381000*%
%ADD24C,0.203200*%
G04 APERTURE END LIST*
D10*
D11*
X31750000Y-25908000D02*
X31750000Y-25400000D01*
X25400000Y-25908000D02*
X31750000Y-25908000D01*
X31750000Y-35306000D02*
X31750000Y-35814000D01*
X25400000Y-35306000D02*
X31750000Y-35306000D01*
X25400000Y-35306000D02*
X25400000Y-25908000D01*
X50800000Y-35814000D02*
X31750000Y-35814000D01*
X50800000Y-25400000D02*
X50800000Y-35814000D01*
X31750000Y-25400000D02*
X50800000Y-25400000D01*
D12*
X41719500Y-30162500D03*
X41719500Y-32321500D03*
D13*
X43815000Y-30607000D03*
X43815000Y-32512000D03*
D14*
X49085500Y-33147000D03*
D15*
X33464500Y-26924000D03*
D14*
X36004500Y-26924000D03*
X38544500Y-26924000D03*
X41084500Y-26924000D03*
X43624500Y-26924000D03*
X46164500Y-26924000D03*
D15*
X49085500Y-30607000D03*
D14*
X49085500Y-28067000D03*
D16*
X45974000Y-34861500D03*
X43942000Y-34861500D03*
D17*
X39751000Y-30162500D03*
X39751000Y-31432500D03*
X39751000Y-32702500D03*
X39751000Y-33972500D03*
X33147000Y-33972500D03*
X33147000Y-32702500D03*
X33147000Y-31432500D03*
X33147000Y-30162500D03*
D18*
X33020000Y-28829000D03*
D19*
X46291500Y-30162500D03*
X46291500Y-32067500D03*
D20*
X46291500Y-33337500D03*
X46291500Y-28892500D03*
D21*
X28448000Y-33147000D03*
X28448000Y-28067000D03*
D22*
X38862000Y-29210000D03*
X41910000Y-33845500D03*
X34734500Y-30861000D03*
X34480500Y-29146500D03*
X37528500Y-29146500D03*
X44958000Y-33718500D03*
X35941000Y-33972500D03*
D23*
X46291500Y-33591500D02*
X45974000Y-33909000D01*
X45974000Y-33909000D02*
X45974000Y-34861500D01*
X48133000Y-30607000D02*
X49085500Y-30607000D01*
X46672500Y-32067500D02*
X48133000Y-30607000D01*
X46291500Y-32067500D02*
X46672500Y-32067500D01*
X46291500Y-32067500D02*
X46291500Y-33337500D01*
X46291500Y-32067500D02*
X46291500Y-33591500D01*
D11*
X40449500Y-29210000D02*
X38862000Y-29210000D01*
X41719500Y-30162500D02*
X42418000Y-30162500D01*
X40830500Y-29591000D02*
X40449500Y-29210000D01*
X40830500Y-30162500D02*
X41719500Y-30162500D01*
X39751000Y-30162500D02*
X40830500Y-30162500D01*
X45212000Y-30162500D02*
X44767500Y-30607000D01*
X44767500Y-30607000D02*
X43815000Y-30607000D01*
X46291500Y-30162500D02*
X45212000Y-30162500D01*
X46291500Y-30162500D02*
X46291500Y-28892500D01*
X40830500Y-30162500D02*
X40830500Y-29591000D01*
X42418000Y-30162500D02*
X42862500Y-30607000D01*
X42862500Y-30607000D02*
X43815000Y-30607000D01*
D24*
X32194500Y-31432500D02*
X31877000Y-31115000D01*
X31877000Y-31115000D02*
X31877000Y-29972000D01*
X31877000Y-29972000D02*
X33020000Y-28829000D01*
X33147000Y-31432500D02*
X32194500Y-31432500D01*
D11*
X36004500Y-29464000D02*
X36004500Y-32131000D01*
X39751000Y-32702500D02*
X36576000Y-32702500D01*
X36004500Y-32131000D02*
X36576000Y-32702500D01*
X36004500Y-29464000D02*
X33464500Y-26924000D01*
X41021000Y-33845500D02*
X40894000Y-33972500D01*
X41910000Y-33845500D02*
X41021000Y-33845500D01*
X40894000Y-33972500D02*
X39751000Y-33972500D01*
X34734500Y-32194500D02*
X34734500Y-30861000D01*
X34226500Y-32702500D02*
X34734500Y-32194500D01*
X33147000Y-32702500D02*
X34226500Y-32702500D01*
X43624500Y-28003500D02*
X43243500Y-28384500D01*
X34480500Y-29908500D02*
X34480500Y-29146500D01*
X43624500Y-28003500D02*
X43624500Y-26924000D01*
D24*
X43243500Y-28384500D02*
X38290500Y-28384500D01*
D11*
X33147000Y-30162500D02*
X34226500Y-30162500D01*
X34226500Y-30162500D02*
X34480500Y-29908500D01*
X38290500Y-28384500D02*
X37528500Y-29146500D01*
X36639500Y-28829000D02*
X38544500Y-26924000D01*
X36639500Y-30924500D02*
X37147500Y-31432500D01*
X36639500Y-28829000D02*
X36639500Y-30924500D01*
X39751000Y-31432500D02*
X37147500Y-31432500D01*
D23*
X42608500Y-32321500D02*
X41719500Y-32321500D01*
X43815000Y-32512000D02*
X42799000Y-32512000D01*
X43815000Y-33718500D02*
X43301920Y-33718500D01*
X42799000Y-32512000D02*
X42608500Y-32321500D01*
X35097720Y-34780220D02*
X34290000Y-33972500D01*
X35097720Y-34780220D02*
X35941000Y-34780220D01*
X33147000Y-33972500D02*
X34290000Y-33972500D01*
X44958000Y-33718500D02*
X43815000Y-33718500D01*
X42240200Y-34780220D02*
X35941000Y-34780220D01*
X43815000Y-32512000D02*
X43815000Y-33718500D01*
X35941000Y-33972500D02*
X35941000Y-34780220D01*
X43301920Y-33718500D02*
X42240200Y-34780220D01*
X31750000Y-33528000D02*
X31369000Y-33147000D01*
X31369000Y-33147000D02*
X30734000Y-33147000D01*
X43942000Y-34861500D02*
X43370500Y-34861500D01*
X31750000Y-34671000D02*
X32512000Y-35433000D01*
X42799000Y-35433000D02*
X32512000Y-35433000D01*
X43370500Y-34861500D02*
X42799000Y-35433000D01*
X31750000Y-34671000D02*
X31750000Y-33528000D01*
M02*
