G04 (created by PCBNEW-RS274X (2011-12-28 BZR 3254)-stable) date 7/21/2012 11:07:53 AM*
G01*
G70*
G90*
%MOIN*%
G04 Gerber Fmt 3.4, Leading zero omitted, Abs format*
%FSLAX34Y34*%
G04 APERTURE LIST*
%ADD10C,0.006000*%
%ADD11C,0.005000*%
%ADD12C,0.010000*%
G04 APERTURE END LIST*
G54D10*
G54D11*
X11228Y-01164D02*
X11228Y-01192D01*
X11213Y-01221D01*
X11199Y-01235D01*
X11170Y-01249D01*
X11113Y-01264D01*
X11042Y-01264D01*
X10985Y-01249D01*
X10956Y-01235D01*
X10942Y-01221D01*
X10928Y-01192D01*
X10928Y-01164D01*
X10942Y-01135D01*
X10956Y-01121D01*
X10985Y-01106D01*
X11042Y-01092D01*
X11113Y-01092D01*
X11170Y-01106D01*
X11199Y-01121D01*
X11213Y-01135D01*
X11228Y-01164D01*
X10956Y-01392D02*
X10942Y-01407D01*
X10928Y-01392D01*
X10942Y-01378D01*
X10956Y-01392D01*
X10928Y-01392D01*
X11128Y-01664D02*
X10928Y-01664D01*
X11242Y-01593D02*
X11028Y-01521D01*
X11028Y-01707D01*
X10928Y-01979D02*
X10928Y-01807D01*
X10928Y-01893D02*
X11228Y-01893D01*
X11185Y-01864D01*
X11156Y-01836D01*
X11142Y-01807D01*
X11228Y-02165D02*
X11228Y-02193D01*
X11213Y-02222D01*
X11199Y-02236D01*
X11170Y-02250D01*
X11113Y-02265D01*
X11042Y-02265D01*
X10985Y-02250D01*
X10956Y-02236D01*
X10942Y-02222D01*
X10928Y-02193D01*
X10928Y-02165D01*
X10942Y-02136D01*
X10956Y-02122D01*
X10985Y-02107D01*
X11042Y-02093D01*
X11113Y-02093D01*
X11170Y-02107D01*
X11199Y-02122D01*
X11213Y-02136D01*
X11228Y-02165D01*
X11228Y-02451D02*
X11228Y-02479D01*
X11213Y-02508D01*
X11199Y-02522D01*
X11170Y-02536D01*
X11113Y-02551D01*
X11042Y-02551D01*
X10985Y-02536D01*
X10956Y-02522D01*
X10942Y-02508D01*
X10928Y-02479D01*
X10928Y-02451D01*
X10942Y-02422D01*
X10956Y-02408D01*
X10985Y-02393D01*
X11042Y-02379D01*
X11113Y-02379D01*
X11170Y-02393D01*
X11199Y-02408D01*
X11213Y-02422D01*
X11228Y-02451D01*
X11228Y-02894D02*
X11170Y-02894D01*
X11228Y-03008D02*
X11170Y-03008D01*
X10799Y00000D02*
X10799Y-04100D01*
X10200Y00000D02*
X11299Y00000D01*
X10200Y-04100D02*
X11299Y-04100D01*
X10799Y-04100D02*
X10569Y-03657D01*
X10799Y-04100D02*
X11029Y-03657D01*
X10799Y00000D02*
X10569Y-00443D01*
X10799Y00000D02*
X11029Y-00443D01*
X04314Y-05070D02*
X04142Y-05070D01*
X04228Y-05070D02*
X04228Y-04770D01*
X04199Y-04813D01*
X04171Y-04842D01*
X04142Y-04856D01*
X04442Y-05042D02*
X04457Y-05056D01*
X04442Y-05070D01*
X04428Y-05056D01*
X04442Y-05042D01*
X04442Y-05070D01*
X04643Y-04770D02*
X04671Y-04770D01*
X04700Y-04785D01*
X04714Y-04799D01*
X04728Y-04828D01*
X04743Y-04885D01*
X04743Y-04956D01*
X04728Y-05013D01*
X04714Y-05042D01*
X04700Y-05056D01*
X04671Y-05070D01*
X04643Y-05070D01*
X04614Y-05056D01*
X04600Y-05042D01*
X04585Y-05013D01*
X04571Y-04956D01*
X04571Y-04885D01*
X04585Y-04828D01*
X04600Y-04799D01*
X04614Y-04785D01*
X04643Y-04770D01*
X04857Y-04799D02*
X04871Y-04785D01*
X04900Y-04770D01*
X04971Y-04770D01*
X05000Y-04785D01*
X05014Y-04799D01*
X05029Y-04828D01*
X05029Y-04856D01*
X05014Y-04899D01*
X04843Y-05070D01*
X05029Y-05070D01*
X05215Y-04770D02*
X05243Y-04770D01*
X05272Y-04785D01*
X05286Y-04799D01*
X05300Y-04828D01*
X05315Y-04885D01*
X05315Y-04956D01*
X05300Y-05013D01*
X05286Y-05042D01*
X05272Y-05056D01*
X05243Y-05070D01*
X05215Y-05070D01*
X05186Y-05056D01*
X05172Y-05042D01*
X05157Y-05013D01*
X05143Y-04956D01*
X05143Y-04885D01*
X05157Y-04828D01*
X05172Y-04799D01*
X05186Y-04785D01*
X05215Y-04770D01*
X05501Y-04770D02*
X05529Y-04770D01*
X05558Y-04785D01*
X05572Y-04799D01*
X05586Y-04828D01*
X05601Y-04885D01*
X05601Y-04956D01*
X05586Y-05013D01*
X05572Y-05042D01*
X05558Y-05056D01*
X05529Y-05070D01*
X05501Y-05070D01*
X05472Y-05056D01*
X05458Y-05042D01*
X05443Y-05013D01*
X05429Y-04956D01*
X05429Y-04885D01*
X05443Y-04828D01*
X05458Y-04799D01*
X05472Y-04785D01*
X05501Y-04770D01*
X05944Y-04770D02*
X05944Y-04828D01*
X06058Y-04770D02*
X06058Y-04828D01*
X10200Y-04699D02*
X00000Y-04699D01*
X10200Y-04100D02*
X10200Y-05199D01*
X00000Y-04100D02*
X00000Y-05199D01*
X00000Y-04699D02*
X00443Y-04469D01*
X00000Y-04699D02*
X00443Y-04929D01*
X10200Y-04699D02*
X09757Y-04469D01*
X10200Y-04699D02*
X09757Y-04929D01*
G54D12*
X02700Y-00200D02*
X02700Y00000D01*
X00000Y-00200D02*
X02700Y-00200D01*
X02700Y-03900D02*
X02700Y-04100D01*
X00000Y-03900D02*
X02700Y-03900D01*
X00000Y-03900D02*
X00000Y-00200D01*
X10200Y-04100D02*
X02700Y-04100D01*
X10200Y00000D02*
X10200Y-04100D01*
X02700Y00000D02*
X10200Y00000D01*
M02*
