G04 (created by PCBNEW-RS274X (2011-12-28 BZR 3254)-stable) date 7/21/2012 11:07:53 AM*
G01*
G70*
G90*
%MOIN*%
G04 Gerber Fmt 3.4, Leading zero omitted, Abs format*
%FSLAX34Y34*%
G04 APERTURE LIST*
%ADD10C,0.006000*%
%ADD11C,0.010000*%
%ADD12R,0.035000X0.040000*%
%ADD13R,0.045000X0.055000*%
%ADD14C,0.070000*%
%ADD15R,0.070000X0.070000*%
%ADD16R,0.040000X0.030000*%
%ADD17R,0.055000X0.020000*%
%ADD18C,0.055000*%
%ADD19R,0.059000X0.051200*%
%ADD20C,0.046000*%
%ADD21R,0.250000X0.070000*%
%ADD22C,0.035000*%
%ADD23C,0.015000*%
%ADD24C,0.008000*%
G04 APERTURE END LIST*
G54D10*
G54D11*
X02700Y-00200D02*
X02700Y00000D01*
X00000Y-00200D02*
X02700Y-00200D01*
X02700Y-03900D02*
X02700Y-04100D01*
X00000Y-03900D02*
X02700Y-03900D01*
X00000Y-03900D02*
X00000Y-00200D01*
X10200Y-04100D02*
X02700Y-04100D01*
X10200Y00000D02*
X10200Y-04100D01*
X02700Y00000D02*
X10200Y00000D01*
G54D12*
X06625Y-01875D03*
X06625Y-02725D03*
G54D13*
X07450Y-02050D03*
X07450Y-02800D03*
G54D14*
X09525Y-03050D03*
G54D15*
X03375Y-00600D03*
G54D14*
X04375Y-00600D03*
X05375Y-00600D03*
X06375Y-00600D03*
X07375Y-00600D03*
X08375Y-00600D03*
G54D15*
X09525Y-02050D03*
G54D14*
X09525Y-01050D03*
G54D16*
X08300Y-03725D03*
X07500Y-03725D03*
G54D17*
X05850Y-01875D03*
X05850Y-02375D03*
X05850Y-02875D03*
X05850Y-03375D03*
X03250Y-03375D03*
X03250Y-02875D03*
X03250Y-02375D03*
X03250Y-01875D03*
G54D18*
X03200Y-01350D03*
G54D19*
X08425Y-01875D03*
X08425Y-02625D03*
G54D20*
X08425Y-03125D03*
X08425Y-01375D03*
G54D21*
X01300Y-03050D03*
X01300Y-01050D03*
G54D22*
X05500Y-01500D03*
X06700Y-03325D03*
X03875Y-02150D03*
X03775Y-01475D03*
X04975Y-01475D03*
X04350Y-03375D03*
X07900Y-03275D03*
G54D23*
X08300Y-03350D02*
X08300Y-03725D01*
X08425Y-03225D02*
X08300Y-03350D01*
X08425Y-02625D02*
X08425Y-03225D01*
X08425Y-02625D02*
X08425Y-03125D01*
X08425Y-02625D02*
X08575Y-02625D01*
X08575Y-02625D02*
X09150Y-02050D01*
X09150Y-02050D02*
X09525Y-02050D01*
G54D11*
X06900Y-01875D02*
X07075Y-02050D01*
X06275Y-01875D02*
X06275Y-01650D01*
X08425Y-01875D02*
X08425Y-01375D01*
X08425Y-01875D02*
X08000Y-01875D01*
X07825Y-02050D02*
X07450Y-02050D01*
X08000Y-01875D02*
X07825Y-02050D01*
X05850Y-01875D02*
X06275Y-01875D01*
X06125Y-01500D02*
X05500Y-01500D01*
X07075Y-02050D02*
X07450Y-02050D01*
X06275Y-01875D02*
X06625Y-01875D01*
X06275Y-01650D02*
X06125Y-01500D01*
X06625Y-01875D02*
X06900Y-01875D01*
G54D24*
X03250Y-02375D02*
X02875Y-02375D01*
X02750Y-01800D02*
X03200Y-01350D01*
X02750Y-02250D02*
X02750Y-01800D01*
X02875Y-02375D02*
X02750Y-02250D01*
G54D11*
X04375Y-01600D02*
X03375Y-00600D01*
X04375Y-02650D02*
X04600Y-02875D01*
X05850Y-02875D02*
X04600Y-02875D01*
X04375Y-01600D02*
X04375Y-02650D01*
X06700Y-03325D02*
X06350Y-03325D01*
X06300Y-03375D02*
X05850Y-03375D01*
X06350Y-03325D02*
X06300Y-03375D01*
X03250Y-02875D02*
X03675Y-02875D01*
X03675Y-02875D02*
X03875Y-02675D01*
X03875Y-02675D02*
X03875Y-02150D01*
X03250Y-01875D02*
X03675Y-01875D01*
X03775Y-01775D02*
X03775Y-01475D01*
X05275Y-01175D02*
X04975Y-01475D01*
G54D24*
X07225Y-01175D02*
X05275Y-01175D01*
G54D11*
X07375Y-01025D02*
X07225Y-01175D01*
X03675Y-01875D02*
X03775Y-01775D01*
X07375Y-01025D02*
X07375Y-00600D01*
X05850Y-02375D02*
X04825Y-02375D01*
X04625Y-01350D02*
X04625Y-02175D01*
X04625Y-02175D02*
X04825Y-02375D01*
X04625Y-01350D02*
X05375Y-00600D01*
G54D23*
X07450Y-02800D02*
X07450Y-03275D01*
X07248Y-03275D02*
X06830Y-03693D01*
X04350Y-03375D02*
X04350Y-03693D01*
X06830Y-03693D02*
X04350Y-03693D01*
X07900Y-03275D02*
X07450Y-03275D01*
X06975Y-02725D02*
X06625Y-02725D01*
X04018Y-03693D02*
X04350Y-03693D01*
X04018Y-03693D02*
X03700Y-03375D01*
X07050Y-02800D02*
X06975Y-02725D01*
X07450Y-03275D02*
X07248Y-03275D01*
X07450Y-02800D02*
X07050Y-02800D01*
X03250Y-03375D02*
X03700Y-03375D01*
X02700Y-03650D02*
X02700Y-03200D01*
X07275Y-03725D02*
X07050Y-03950D01*
X07050Y-03950D02*
X03000Y-03950D01*
X02700Y-03650D02*
X03000Y-03950D01*
X07500Y-03725D02*
X07275Y-03725D01*
X02550Y-03050D02*
X02300Y-03050D01*
X02700Y-03200D02*
X02550Y-03050D01*
M02*
