M48
INCH,TZ
T1C0.025
T2C0.032
T3C0.040
%
G90
G05
T1
X1.3575Y-1.1475
X1.3675Y-1.215
X1.415Y-1.3375
X1.4775Y-1.1475
X1.53Y-1.15
X1.65Y-1.3325
X1.77Y-1.3275
T2
X1.21Y-1.105
X1.21Y-1.305
X1.8225Y-1.1375
X1.8225Y-1.3125
T3
X1.3Y-1.135
X1.3175Y-1.06
X1.4175Y-1.06
X1.5175Y-1.06
X1.6175Y-1.06
X1.7175Y-1.06
X1.8175Y-1.06
X1.9325Y-1.105
X1.9325Y-1.205
X1.9325Y-1.305
T0
M30
