G04 #@! TF.FileFunction,Copper,L2,Bot,Signal*
%FSLAX46Y46*%
G04 Gerber Fmt 4.6, Leading zero omitted, Abs format (unit mm)*
G04 Created by KiCad (PCBNEW 0.201511011201+6288~30~ubuntu15.10.1-product) date Wed Nov  4 22:56:01 2015*
%MOMM*%
G01*
G04 APERTURE LIST*
%ADD10C,0.150000*%
%ADD11C,0.254000*%
%ADD12R,0.889000X1.016000*%
%ADD13R,1.270000X0.889000*%
%ADD14R,1.498600X1.300480*%
%ADD15R,1.143000X1.397000*%
%ADD16C,1.778000*%
%ADD17R,1.778000X1.778000*%
%ADD18C,1.397000*%
%ADD19C,1.168400*%
%ADD20R,5.842000X1.778000*%
%ADD21C,0.889000*%
%ADD22C,0.381000*%
%ADD23C,0.203200*%
G04 APERTURE END LIST*
D10*
D11*
X31750000Y-25908000D02*
X31750000Y-25400000D01*
X25400000Y-25908000D02*
X31750000Y-25908000D01*
X31750000Y-35306000D02*
X31750000Y-35814000D01*
X25400000Y-35306000D02*
X31750000Y-35306000D01*
X25400000Y-35306000D02*
X25400000Y-25908000D01*
X50800000Y-35814000D02*
X31750000Y-35814000D01*
X50800000Y-25400000D02*
X50800000Y-35814000D01*
X31750000Y-25400000D02*
X50800000Y-25400000D01*
D12*
X33464500Y-30734000D03*
X33464500Y-32893000D03*
D13*
X43751500Y-32385000D03*
X46164500Y-31432500D03*
X43751500Y-30480000D03*
D14*
X38481000Y-30797500D03*
X38481000Y-32702500D03*
X41021000Y-32512000D03*
X41021000Y-30607000D03*
D15*
X35941000Y-30861000D03*
X35941000Y-32766000D03*
D16*
X49085500Y-33147000D03*
D17*
X33464500Y-26924000D03*
D16*
X36004500Y-26924000D03*
X38544500Y-26924000D03*
X41084500Y-26924000D03*
X43624500Y-26924000D03*
X46164500Y-26924000D03*
D17*
X49085500Y-30607000D03*
D16*
X49085500Y-28067000D03*
D18*
X33020000Y-28829000D03*
D19*
X46291500Y-33337500D03*
X46291500Y-28892500D03*
D20*
X28448000Y-33147000D03*
X28448000Y-28067000D03*
D21*
X38862000Y-29210000D03*
X41910000Y-33845500D03*
X34734500Y-30861000D03*
X34480500Y-29146500D03*
X37528500Y-29146500D03*
X44958000Y-33718500D03*
X35941000Y-33972500D03*
D11*
X38862000Y-29210000D02*
X37909500Y-28257500D01*
X37909500Y-28257500D02*
X37338000Y-28257500D01*
X37338000Y-28257500D02*
X36004500Y-26924000D01*
D22*
X48641000Y-28067000D02*
X47434500Y-29273500D01*
X47434500Y-30162500D02*
X46164500Y-31432500D01*
X47434500Y-29273500D02*
X47434500Y-30162500D01*
X49085500Y-28067000D02*
X48641000Y-28067000D01*
D11*
X39751000Y-32004000D02*
X39751000Y-28257500D01*
X39751000Y-28257500D02*
X41084500Y-26924000D01*
X41021000Y-32512000D02*
X41021000Y-32956500D01*
X40259000Y-32512000D02*
X39751000Y-32004000D01*
X41021000Y-32956500D02*
X41910000Y-33845500D01*
X41021000Y-32512000D02*
X40259000Y-32512000D01*
X34163000Y-30861000D02*
X34036000Y-30734000D01*
X38417500Y-30861000D02*
X38481000Y-30797500D01*
X35941000Y-30861000D02*
X38417500Y-30861000D01*
X34734500Y-30861000D02*
X35941000Y-30861000D01*
X34036000Y-30734000D02*
X33464500Y-30734000D01*
X34734500Y-30861000D02*
X34163000Y-30861000D01*
X37528500Y-29146500D02*
X34480500Y-29146500D01*
X38481000Y-34480500D02*
X39052500Y-35052000D01*
X39052500Y-35052000D02*
X47180500Y-35052000D01*
X47180500Y-35052000D02*
X49085500Y-33147000D01*
X38481000Y-32702500D02*
X38481000Y-34480500D01*
D22*
X31623000Y-28130500D02*
X31623000Y-29210000D01*
X30734000Y-28067000D02*
X31559500Y-28067000D01*
X32258000Y-32385000D02*
X32258000Y-29845000D01*
X32766000Y-32893000D02*
X32258000Y-32385000D01*
X31623000Y-29210000D02*
X32258000Y-29845000D01*
X32766000Y-32893000D02*
X33464500Y-32893000D01*
X44958000Y-33718500D02*
X44958000Y-31051500D01*
X33464500Y-32893000D02*
X35814000Y-32893000D01*
X31559500Y-28067000D02*
X31623000Y-28130500D01*
X35814000Y-32893000D02*
X35941000Y-32766000D01*
X44386500Y-30480000D02*
X44958000Y-31051500D01*
X43751500Y-29337000D02*
X46164500Y-26924000D01*
X35941000Y-32766000D02*
X35941000Y-33972500D01*
X43751500Y-30480000D02*
X43751500Y-29337000D01*
X43751500Y-30480000D02*
X44386500Y-30480000D01*
D23*
X42799000Y-32385000D02*
X43751500Y-32385000D01*
X42418000Y-32004000D02*
X42799000Y-32385000D01*
X41021000Y-30607000D02*
X42227500Y-30607000D01*
X42418000Y-30797500D02*
X42418000Y-32004000D01*
X42227500Y-30607000D02*
X42418000Y-30797500D01*
M02*
