G04 #@! TF.FileFunction,Legend,Bot*
%FSLAX46Y46*%
G04 Gerber Fmt 4.6, Leading zero omitted, Abs format (unit mm)*
G04 Created by KiCad (PCBNEW 0.201511011201+6288~30~ubuntu15.10.1-product) date Wed Nov  4 22:56:01 2015*
%MOMM*%
G01*
G04 APERTURE LIST*
%ADD10C,0.150000*%
%ADD11C,0.101600*%
%ADD12C,0.127000*%
%ADD13C,0.228600*%
%ADD14C,0.076200*%
%ADD15C,0.254000*%
%ADD16C,0.152400*%
%ADD17R,1.397000X1.524000*%
%ADD18R,1.778000X1.397000*%
%ADD19R,2.006600X1.808480*%
%ADD20R,1.651000X1.905000*%
%ADD21C,2.286000*%
%ADD22R,2.286000X2.286000*%
%ADD23C,1.905000*%
%ADD24C,1.676400*%
%ADD25R,6.350000X2.286000*%
G04 APERTURE END LIST*
D10*
D11*
X36600191Y-29687762D02*
X36600191Y-29052762D01*
X36358286Y-29052762D01*
X36297810Y-29083000D01*
X36267571Y-29113238D01*
X36237333Y-29173714D01*
X36237333Y-29264429D01*
X36267571Y-29324905D01*
X36297810Y-29355143D01*
X36358286Y-29385381D01*
X36600191Y-29385381D01*
X35753524Y-29355143D02*
X35662810Y-29385381D01*
X35632571Y-29415619D01*
X35602333Y-29476095D01*
X35602333Y-29566810D01*
X35632571Y-29627286D01*
X35662810Y-29657524D01*
X35723286Y-29687762D01*
X35965191Y-29687762D01*
X35965191Y-29052762D01*
X35753524Y-29052762D01*
X35693048Y-29083000D01*
X35662810Y-29113238D01*
X35632571Y-29173714D01*
X35632571Y-29234190D01*
X35662810Y-29294667D01*
X35693048Y-29324905D01*
X35753524Y-29355143D01*
X35965191Y-29355143D01*
X35390667Y-29052762D02*
X34997571Y-29052762D01*
X35209238Y-29294667D01*
X35118524Y-29294667D01*
X35058048Y-29324905D01*
X35027810Y-29355143D01*
X34997571Y-29415619D01*
X34997571Y-29566810D01*
X35027810Y-29627286D01*
X35058048Y-29657524D01*
X35118524Y-29687762D01*
X35299952Y-29687762D01*
X35360429Y-29657524D01*
X35390667Y-29627286D01*
D12*
X28614309Y-26162000D02*
X28674786Y-26131762D01*
X28765500Y-26131762D01*
X28856214Y-26162000D01*
X28916690Y-26222476D01*
X28946929Y-26282952D01*
X28977167Y-26403905D01*
X28977167Y-26494619D01*
X28946929Y-26615571D01*
X28916690Y-26676048D01*
X28856214Y-26736524D01*
X28765500Y-26766762D01*
X28705024Y-26766762D01*
X28614309Y-26736524D01*
X28584071Y-26706286D01*
X28584071Y-26494619D01*
X28705024Y-26494619D01*
X28311929Y-26766762D02*
X28311929Y-26131762D01*
X27949071Y-26766762D01*
X27949071Y-26131762D01*
X27646691Y-26766762D02*
X27646691Y-26131762D01*
X27495500Y-26131762D01*
X27404786Y-26162000D01*
X27344310Y-26222476D01*
X27314071Y-26282952D01*
X27283833Y-26403905D01*
X27283833Y-26494619D01*
X27314071Y-26615571D01*
X27344310Y-26676048D01*
X27404786Y-26736524D01*
X27495500Y-26766762D01*
X27646691Y-26766762D01*
D13*
X30888214Y-30216929D02*
X30888214Y-31740929D01*
X30888214Y-30289500D02*
X30791452Y-30216929D01*
X30597929Y-30216929D01*
X30501167Y-30289500D01*
X30452786Y-30362071D01*
X30404405Y-30507214D01*
X30404405Y-30942643D01*
X30452786Y-31087786D01*
X30501167Y-31160357D01*
X30597929Y-31232929D01*
X30791452Y-31232929D01*
X30888214Y-31160357D01*
X29968976Y-31087786D02*
X29920595Y-31160357D01*
X29968976Y-31232929D01*
X30017357Y-31160357D01*
X29968976Y-31087786D01*
X29968976Y-31232929D01*
X29049738Y-30216929D02*
X29049738Y-31232929D01*
X29485166Y-30216929D02*
X29485166Y-31015214D01*
X29436785Y-31160357D01*
X29340023Y-31232929D01*
X29194881Y-31232929D01*
X29098119Y-31160357D01*
X29049738Y-31087786D01*
X28565928Y-31087786D02*
X28517547Y-31160357D01*
X28565928Y-31232929D01*
X28614309Y-31160357D01*
X28565928Y-31087786D01*
X28565928Y-31232929D01*
X27936975Y-31232929D02*
X28033737Y-31160357D01*
X28082118Y-31015214D01*
X28082118Y-29708929D01*
X27549928Y-31087786D02*
X27501547Y-31160357D01*
X27549928Y-31232929D01*
X27598309Y-31160357D01*
X27549928Y-31087786D01*
X27549928Y-31232929D01*
X27114499Y-31160357D02*
X27017737Y-31232929D01*
X26824213Y-31232929D01*
X26727452Y-31160357D01*
X26679071Y-31015214D01*
X26679071Y-30942643D01*
X26727452Y-30797500D01*
X26824213Y-30724929D01*
X26969356Y-30724929D01*
X27066118Y-30652357D01*
X27114499Y-30507214D01*
X27114499Y-30434643D01*
X27066118Y-30289500D01*
X26969356Y-30216929D01*
X26824213Y-30216929D01*
X26727452Y-30289500D01*
X26243642Y-31087786D02*
X26195261Y-31160357D01*
X26243642Y-31232929D01*
X26292023Y-31160357D01*
X26243642Y-31087786D01*
X26243642Y-31232929D01*
X25372785Y-31160357D02*
X25469547Y-31232929D01*
X25663070Y-31232929D01*
X25759832Y-31160357D01*
X25808213Y-31015214D01*
X25808213Y-30434643D01*
X25759832Y-30289500D01*
X25663070Y-30216929D01*
X25469547Y-30216929D01*
X25372785Y-30289500D01*
X25324404Y-30434643D01*
X25324404Y-30579786D01*
X25808213Y-30724929D01*
D14*
X47331690Y-33642905D02*
X47839690Y-33642905D01*
X47331690Y-33280047D01*
X47839690Y-33280047D01*
X47331690Y-32977667D02*
X47839690Y-32977667D01*
X47839690Y-32826476D01*
X47815500Y-32735762D01*
X47767119Y-32675286D01*
X47718738Y-32645047D01*
X47621976Y-32614809D01*
X47549405Y-32614809D01*
X47452643Y-32645047D01*
X47404262Y-32675286D01*
X47355881Y-32735762D01*
X47331690Y-32826476D01*
X47331690Y-32977667D01*
X47162357Y-31193618D02*
X47162357Y-31344808D01*
X47888071Y-31344808D01*
X47888071Y-31193618D01*
X47525214Y-30951714D02*
X47525214Y-30467904D01*
X47331690Y-30709809D02*
X47718738Y-30709809D01*
X47162357Y-30226000D02*
X47162357Y-30074809D01*
X47888071Y-30074809D01*
X47888071Y-30226000D01*
X47162357Y-28593142D02*
X47162357Y-28744332D01*
X47888071Y-28744332D01*
X47888071Y-28593142D01*
X47525214Y-28351238D02*
X47525214Y-27867428D01*
X47162357Y-27625524D02*
X47162357Y-27474333D01*
X47888071Y-27474333D01*
X47888071Y-27625524D01*
D12*
X28587095Y-35085262D02*
X28949953Y-35085262D01*
X28768524Y-35085262D02*
X28768524Y-34450262D01*
X28829000Y-34540976D01*
X28889476Y-34601452D01*
X28949953Y-34631690D01*
X28345191Y-34510738D02*
X28314953Y-34480500D01*
X28254476Y-34450262D01*
X28103286Y-34450262D01*
X28042810Y-34480500D01*
X28012572Y-34510738D01*
X27982333Y-34571214D01*
X27982333Y-34631690D01*
X28012572Y-34722405D01*
X28375429Y-35085262D01*
X27982333Y-35085262D01*
X27800905Y-34450262D02*
X27589238Y-35085262D01*
X27377571Y-34450262D01*
D14*
X34072288Y-28091190D02*
X34072288Y-28599190D01*
X34326288Y-28236333D01*
X34580288Y-28599190D01*
X34580288Y-28091190D01*
X34943145Y-28091190D02*
X34943145Y-28599190D01*
X36249430Y-28599190D02*
X35886573Y-28599190D01*
X35850287Y-28357286D01*
X35886573Y-28381476D01*
X35959144Y-28405667D01*
X36140573Y-28405667D01*
X36213144Y-28381476D01*
X36249430Y-28357286D01*
X36285715Y-28308905D01*
X36285715Y-28187952D01*
X36249430Y-28139571D01*
X36213144Y-28115381D01*
X36140573Y-28091190D01*
X35959144Y-28091190D01*
X35886573Y-28115381D01*
X35850287Y-28139571D01*
X36503429Y-28599190D02*
X36757429Y-28091190D01*
X37011429Y-28599190D01*
X37809715Y-28115381D02*
X37918572Y-28091190D01*
X38100001Y-28091190D01*
X38172572Y-28115381D01*
X38208858Y-28139571D01*
X38245143Y-28187952D01*
X38245143Y-28236333D01*
X38208858Y-28284714D01*
X38172572Y-28308905D01*
X38100001Y-28333095D01*
X37954858Y-28357286D01*
X37882286Y-28381476D01*
X37846001Y-28405667D01*
X37809715Y-28454048D01*
X37809715Y-28502429D01*
X37846001Y-28550810D01*
X37882286Y-28575000D01*
X37954858Y-28599190D01*
X38136286Y-28599190D01*
X38245143Y-28575000D01*
X39007143Y-28139571D02*
X38970857Y-28115381D01*
X38862000Y-28091190D01*
X38789429Y-28091190D01*
X38680572Y-28115381D01*
X38608000Y-28163762D01*
X38571715Y-28212143D01*
X38535429Y-28308905D01*
X38535429Y-28381476D01*
X38571715Y-28478238D01*
X38608000Y-28526619D01*
X38680572Y-28575000D01*
X38789429Y-28599190D01*
X38862000Y-28599190D01*
X38970857Y-28575000D01*
X39007143Y-28550810D01*
X39914286Y-28091190D02*
X39914286Y-28599190D01*
X40168286Y-28236333D01*
X40422286Y-28599190D01*
X40422286Y-28091190D01*
X40930285Y-28599190D02*
X41075428Y-28599190D01*
X41148000Y-28575000D01*
X41220571Y-28526619D01*
X41256857Y-28429857D01*
X41256857Y-28260524D01*
X41220571Y-28163762D01*
X41148000Y-28115381D01*
X41075428Y-28091190D01*
X40930285Y-28091190D01*
X40857714Y-28115381D01*
X40785143Y-28163762D01*
X40748857Y-28260524D01*
X40748857Y-28429857D01*
X40785143Y-28526619D01*
X40857714Y-28575000D01*
X40930285Y-28599190D01*
X42599428Y-28091190D02*
X42345428Y-28333095D01*
X42164000Y-28091190D02*
X42164000Y-28599190D01*
X42454285Y-28599190D01*
X42526857Y-28575000D01*
X42563142Y-28550810D01*
X42599428Y-28502429D01*
X42599428Y-28429857D01*
X42563142Y-28381476D01*
X42526857Y-28357286D01*
X42454285Y-28333095D01*
X42164000Y-28333095D01*
X42889714Y-28115381D02*
X42998571Y-28091190D01*
X43180000Y-28091190D01*
X43252571Y-28115381D01*
X43288857Y-28139571D01*
X43325142Y-28187952D01*
X43325142Y-28236333D01*
X43288857Y-28284714D01*
X43252571Y-28308905D01*
X43180000Y-28333095D01*
X43034857Y-28357286D01*
X42962285Y-28381476D01*
X42926000Y-28405667D01*
X42889714Y-28454048D01*
X42889714Y-28502429D01*
X42926000Y-28550810D01*
X42962285Y-28575000D01*
X43034857Y-28599190D01*
X43216285Y-28599190D01*
X43325142Y-28575000D01*
X44631427Y-28575000D02*
X44558856Y-28599190D01*
X44449999Y-28599190D01*
X44341142Y-28575000D01*
X44268570Y-28526619D01*
X44232285Y-28478238D01*
X44195999Y-28381476D01*
X44195999Y-28308905D01*
X44232285Y-28212143D01*
X44268570Y-28163762D01*
X44341142Y-28115381D01*
X44449999Y-28091190D01*
X44522570Y-28091190D01*
X44631427Y-28115381D01*
X44667713Y-28139571D01*
X44667713Y-28308905D01*
X44522570Y-28308905D01*
X44994285Y-28091190D02*
X44994285Y-28599190D01*
X45429713Y-28091190D01*
X45429713Y-28599190D01*
D15*
X31750000Y-25908000D02*
X31750000Y-25400000D01*
X25400000Y-25908000D02*
X31750000Y-25908000D01*
X31750000Y-35306000D02*
X31750000Y-35814000D01*
X25400000Y-35306000D02*
X31750000Y-35306000D01*
X25400000Y-35306000D02*
X25400000Y-25908000D01*
X50800000Y-35814000D02*
X31750000Y-35814000D01*
X50800000Y-25400000D02*
X50800000Y-35814000D01*
X31750000Y-25400000D02*
X50800000Y-25400000D01*
D12*
X34036000Y-31559500D02*
X32893000Y-31559500D01*
X33401000Y-31686500D02*
X33591500Y-31686500D01*
X33210500Y-31813500D02*
X33718500Y-31813500D01*
X33083500Y-31940500D02*
X33845500Y-31940500D01*
X33464500Y-32067500D02*
X33972500Y-32067500D01*
X33972500Y-32067500D02*
X33464500Y-31559500D01*
X33464500Y-31559500D02*
X32956500Y-32067500D01*
X32956500Y-32067500D02*
X33464500Y-32067500D01*
X32702500Y-30226000D02*
X32702500Y-29908500D01*
X32702500Y-29908500D02*
X34226500Y-29908500D01*
X34226500Y-29908500D02*
X34226500Y-30226000D01*
X34226500Y-32131000D02*
X34226500Y-33718500D01*
X34226500Y-33718500D02*
X32702500Y-33718500D01*
X32702500Y-33718500D02*
X32702500Y-32131000D01*
D16*
X45593000Y-32194500D02*
X45593000Y-33147000D01*
X45593000Y-33147000D02*
X42799000Y-33147000D01*
X42799000Y-33147000D02*
X42799000Y-29781500D01*
X42799000Y-29781500D02*
X42799000Y-29718000D01*
X42799000Y-29718000D02*
X45593000Y-29718000D01*
X45593000Y-29718000D02*
X45593000Y-30670500D01*
X45593000Y-30670500D02*
X47117000Y-30670500D01*
X47117000Y-30670500D02*
X47117000Y-31432500D01*
X47117000Y-31432500D02*
X47117000Y-32194500D01*
X47117000Y-32194500D02*
X45593000Y-32194500D01*
X37401500Y-31369000D02*
X37401500Y-29781500D01*
X37401500Y-29781500D02*
X39560500Y-29781500D01*
X39560500Y-29781500D02*
X39560500Y-31369000D01*
X39560500Y-32131000D02*
X39560500Y-33655000D01*
X39560500Y-33655000D02*
X39560500Y-33718500D01*
X39560500Y-33718500D02*
X37401500Y-33718500D01*
X37401500Y-33718500D02*
X37401500Y-32131000D01*
X42100500Y-31940500D02*
X42100500Y-33528000D01*
X42100500Y-33528000D02*
X39941500Y-33528000D01*
X39941500Y-33528000D02*
X39941500Y-31940500D01*
X39941500Y-31178500D02*
X39941500Y-29654500D01*
X39941500Y-29654500D02*
X39941500Y-29591000D01*
X39941500Y-29591000D02*
X42100500Y-29591000D01*
X42100500Y-29591000D02*
X42100500Y-31178500D01*
D12*
X36957000Y-31813500D02*
X36957000Y-33782000D01*
X36957000Y-33782000D02*
X34925000Y-33782000D01*
X34925000Y-33782000D02*
X34925000Y-29845000D01*
X34925000Y-29845000D02*
X36957000Y-29845000D01*
X36957000Y-29845000D02*
X36957000Y-31813500D01*
X34026928Y-35206214D02*
X34026928Y-34444214D01*
X33845500Y-34444214D01*
X33736643Y-34480500D01*
X33664071Y-34553071D01*
X33627786Y-34625643D01*
X33591500Y-34770786D01*
X33591500Y-34879643D01*
X33627786Y-35024786D01*
X33664071Y-35097357D01*
X33736643Y-35169929D01*
X33845500Y-35206214D01*
X34026928Y-35206214D01*
X32865786Y-35206214D02*
X33301214Y-35206214D01*
X33083500Y-35206214D02*
X33083500Y-34444214D01*
X33156071Y-34553071D01*
X33228643Y-34625643D01*
X33301214Y-34661929D01*
X43633571Y-35278786D02*
X43706143Y-35242500D01*
X43778714Y-35169929D01*
X43887571Y-35061071D01*
X43960143Y-35024786D01*
X44032714Y-35024786D01*
X43996429Y-35206214D02*
X44069000Y-35169929D01*
X44141571Y-35097357D01*
X44177857Y-34952214D01*
X44177857Y-34698214D01*
X44141571Y-34553071D01*
X44069000Y-34480500D01*
X43996429Y-34444214D01*
X43851286Y-34444214D01*
X43778714Y-34480500D01*
X43706143Y-34553071D01*
X43669857Y-34698214D01*
X43669857Y-34952214D01*
X43706143Y-35097357D01*
X43778714Y-35169929D01*
X43851286Y-35206214D01*
X43996429Y-35206214D01*
X42944143Y-35206214D02*
X43379571Y-35206214D01*
X43161857Y-35206214D02*
X43161857Y-34444214D01*
X43234428Y-34553071D01*
X43307000Y-34625643D01*
X43379571Y-34661929D01*
X38608000Y-35206214D02*
X38862000Y-34843357D01*
X39043428Y-35206214D02*
X39043428Y-34444214D01*
X38753143Y-34444214D01*
X38680571Y-34480500D01*
X38644286Y-34516786D01*
X38608000Y-34589357D01*
X38608000Y-34698214D01*
X38644286Y-34770786D01*
X38680571Y-34807071D01*
X38753143Y-34843357D01*
X39043428Y-34843357D01*
X37882286Y-35206214D02*
X38317714Y-35206214D01*
X38100000Y-35206214D02*
X38100000Y-34444214D01*
X38172571Y-34553071D01*
X38245143Y-34625643D01*
X38317714Y-34661929D01*
X41148000Y-35206214D02*
X41402000Y-34843357D01*
X41583428Y-35206214D02*
X41583428Y-34444214D01*
X41293143Y-34444214D01*
X41220571Y-34480500D01*
X41184286Y-34516786D01*
X41148000Y-34589357D01*
X41148000Y-34698214D01*
X41184286Y-34770786D01*
X41220571Y-34807071D01*
X41293143Y-34843357D01*
X41583428Y-34843357D01*
X40894000Y-34444214D02*
X40422286Y-34444214D01*
X40676286Y-34734500D01*
X40567428Y-34734500D01*
X40494857Y-34770786D01*
X40458571Y-34807071D01*
X40422286Y-34879643D01*
X40422286Y-35061071D01*
X40458571Y-35133643D01*
X40494857Y-35169929D01*
X40567428Y-35206214D01*
X40785143Y-35206214D01*
X40857714Y-35169929D01*
X40894000Y-35133643D01*
X36068000Y-35133643D02*
X36104286Y-35169929D01*
X36213143Y-35206214D01*
X36285714Y-35206214D01*
X36394571Y-35169929D01*
X36467143Y-35097357D01*
X36503428Y-35024786D01*
X36539714Y-34879643D01*
X36539714Y-34770786D01*
X36503428Y-34625643D01*
X36467143Y-34553071D01*
X36394571Y-34480500D01*
X36285714Y-34444214D01*
X36213143Y-34444214D01*
X36104286Y-34480500D01*
X36068000Y-34516786D01*
X35342286Y-35206214D02*
X35777714Y-35206214D01*
X35560000Y-35206214D02*
X35560000Y-34444214D01*
X35632571Y-34553071D01*
X35705143Y-34625643D01*
X35777714Y-34661929D01*
%LPC*%
D17*
X33464500Y-30734000D03*
X33464500Y-32893000D03*
D18*
X43751500Y-32385000D03*
X46164500Y-31432500D03*
X43751500Y-30480000D03*
D19*
X38481000Y-30797500D03*
X38481000Y-32702500D03*
X41021000Y-32512000D03*
X41021000Y-30607000D03*
D20*
X35941000Y-30861000D03*
X35941000Y-32766000D03*
D21*
X49085500Y-33147000D03*
D22*
X33464500Y-26924000D03*
D21*
X36004500Y-26924000D03*
X38544500Y-26924000D03*
X41084500Y-26924000D03*
X43624500Y-26924000D03*
X46164500Y-26924000D03*
D22*
X49085500Y-30607000D03*
D21*
X49085500Y-28067000D03*
D23*
X33020000Y-28829000D03*
D24*
X46291500Y-33337500D03*
X46291500Y-28892500D03*
D25*
X28448000Y-33147000D03*
X28448000Y-28067000D03*
M02*
