G04 (created by PCBNEW (2011-12-28 BZR 3254)-stable) date 7/21/2012 11:08:01 AM*
G01*
G70*
G90*
%MOIN*%
G04 Gerber Fmt 3.4, Leading zero omitted, Abs format*
%FSLAX34Y34*%
G04 APERTURE LIST*
%ADD10C,0.001000*%
%ADD11C,0.010000*%
%ADD12C,0.008000*%
G04 APERTURE END LIST*
G54D10*
G54D11*
X02700Y-00200D02*
X02700Y00000D01*
X00000Y-00200D02*
X02700Y-00200D01*
X02700Y-03900D02*
X02700Y-04100D01*
X00000Y-03900D02*
X02700Y-03900D01*
X00000Y-03900D02*
X00000Y-00200D01*
X10200Y-04100D02*
X02700Y-04100D01*
X10200Y00000D02*
X10200Y-04100D01*
X02700Y00000D02*
X10200Y00000D01*
G54D10*
X03650Y-01350D02*
X03900Y-01600D01*
X03900Y-01350D02*
X03650Y-01600D01*
X03750Y-02025D02*
X04000Y-02275D01*
X04000Y-02025D02*
X03750Y-02275D01*
X04225Y-03250D02*
X04475Y-03500D01*
X04475Y-03250D02*
X04225Y-03500D01*
X04850Y-01350D02*
X05100Y-01600D01*
X05100Y-01350D02*
X04850Y-01600D01*
X05375Y-01375D02*
X05625Y-01625D01*
X05625Y-01375D02*
X05375Y-01625D01*
X06575Y-03200D02*
X06825Y-03450D01*
X06825Y-03200D02*
X06575Y-03450D01*
X07775Y-03150D02*
X08025Y-03400D01*
X08025Y-03150D02*
X07775Y-03400D01*
X02460Y-01050D02*
X02456Y-01081D01*
X02447Y-01110D01*
X02433Y-01138D01*
X02413Y-01162D01*
X02389Y-01182D01*
X02362Y-01197D01*
X02332Y-01206D01*
X02301Y-01209D01*
X02271Y-01207D01*
X02241Y-01198D01*
X02213Y-01183D01*
X02189Y-01164D01*
X02168Y-01140D01*
X02153Y-01113D01*
X02144Y-01083D01*
X02141Y-01052D01*
X02143Y-01022D01*
X02152Y-00992D01*
X02166Y-00964D01*
X02185Y-00939D01*
X02209Y-00919D01*
X02236Y-00904D01*
X02266Y-00894D01*
X02297Y-00891D01*
X02327Y-00893D01*
X02357Y-00901D01*
X02385Y-00915D01*
X02410Y-00935D01*
X02430Y-00958D01*
X02446Y-00985D01*
X02456Y-01015D01*
X02459Y-01046D01*
X02460Y-01050D01*
X02460Y-03050D02*
X02456Y-03081D01*
X02447Y-03110D01*
X02433Y-03138D01*
X02413Y-03162D01*
X02389Y-03182D01*
X02362Y-03197D01*
X02332Y-03206D01*
X02301Y-03209D01*
X02271Y-03207D01*
X02241Y-03198D01*
X02213Y-03183D01*
X02189Y-03164D01*
X02168Y-03140D01*
X02153Y-03113D01*
X02144Y-03083D01*
X02141Y-03052D01*
X02143Y-03022D01*
X02152Y-02992D01*
X02166Y-02964D01*
X02185Y-02939D01*
X02209Y-02919D01*
X02236Y-02904D01*
X02266Y-02894D01*
X02297Y-02891D01*
X02327Y-02893D01*
X02357Y-02901D01*
X02385Y-02915D01*
X02410Y-02935D01*
X02430Y-02958D01*
X02446Y-02985D01*
X02456Y-03015D01*
X02459Y-03046D01*
X02460Y-03050D01*
X08585Y-01375D02*
X08581Y-01406D01*
X08572Y-01435D01*
X08558Y-01463D01*
X08538Y-01487D01*
X08514Y-01507D01*
X08487Y-01522D01*
X08457Y-01531D01*
X08426Y-01534D01*
X08396Y-01532D01*
X08366Y-01523D01*
X08338Y-01508D01*
X08314Y-01489D01*
X08293Y-01465D01*
X08278Y-01438D01*
X08269Y-01408D01*
X08266Y-01377D01*
X08268Y-01347D01*
X08277Y-01317D01*
X08291Y-01289D01*
X08310Y-01264D01*
X08334Y-01244D01*
X08361Y-01229D01*
X08391Y-01219D01*
X08422Y-01216D01*
X08452Y-01218D01*
X08482Y-01226D01*
X08510Y-01240D01*
X08535Y-01260D01*
X08555Y-01283D01*
X08571Y-01310D01*
X08581Y-01340D01*
X08584Y-01371D01*
X08585Y-01375D01*
X08585Y-03125D02*
X08581Y-03156D01*
X08572Y-03185D01*
X08558Y-03213D01*
X08538Y-03237D01*
X08514Y-03257D01*
X08487Y-03272D01*
X08457Y-03281D01*
X08426Y-03284D01*
X08396Y-03282D01*
X08366Y-03273D01*
X08338Y-03258D01*
X08314Y-03239D01*
X08293Y-03215D01*
X08278Y-03188D01*
X08269Y-03158D01*
X08266Y-03127D01*
X08268Y-03097D01*
X08277Y-03067D01*
X08291Y-03039D01*
X08310Y-03014D01*
X08334Y-02994D01*
X08361Y-02979D01*
X08391Y-02969D01*
X08422Y-02966D01*
X08452Y-02968D01*
X08482Y-02976D01*
X08510Y-02990D01*
X08535Y-03010D01*
X08555Y-03033D01*
X08571Y-03060D01*
X08581Y-03090D01*
X08584Y-03121D01*
X08585Y-03125D01*
X03200Y-01150D02*
X03200Y-01550D01*
X03400Y-01350D02*
X03000Y-01350D01*
X03375Y-00400D02*
X03375Y-00800D01*
X03575Y-00600D02*
X03175Y-00600D01*
X04375Y-00400D02*
X04375Y-00800D01*
X04575Y-00600D02*
X04175Y-00600D01*
X05375Y-00400D02*
X05375Y-00800D01*
X05575Y-00600D02*
X05175Y-00600D01*
X06375Y-00400D02*
X06375Y-00800D01*
X06575Y-00600D02*
X06175Y-00600D01*
X07375Y-00400D02*
X07375Y-00800D01*
X07575Y-00600D02*
X07175Y-00600D01*
X08375Y-00400D02*
X08375Y-00800D01*
X08575Y-00600D02*
X08175Y-00600D01*
X09525Y-00850D02*
X09525Y-01250D01*
X09725Y-01050D02*
X09325Y-01050D01*
X09525Y-01850D02*
X09525Y-02250D01*
X09725Y-02050D02*
X09325Y-02050D01*
X09525Y-02850D02*
X09525Y-03250D01*
X09725Y-03050D02*
X09325Y-03050D01*
G54D12*
X00289Y-06404D02*
X00289Y-05604D01*
X00480Y-05604D01*
X00594Y-05642D01*
X00670Y-05718D01*
X00709Y-05794D01*
X00747Y-05947D01*
X00747Y-06061D01*
X00709Y-06213D01*
X00670Y-06290D01*
X00594Y-06366D01*
X00480Y-06404D01*
X00289Y-06404D01*
X01089Y-06404D02*
X01089Y-05870D01*
X01089Y-06023D02*
X01128Y-05947D01*
X01166Y-05909D01*
X01242Y-05870D01*
X01318Y-05870D01*
X01584Y-06404D02*
X01584Y-05870D01*
X01584Y-05604D02*
X01546Y-05642D01*
X01584Y-05680D01*
X01623Y-05642D01*
X01584Y-05604D01*
X01584Y-05680D01*
X02080Y-06404D02*
X02004Y-06366D01*
X01965Y-06290D01*
X01965Y-05604D01*
X02499Y-06404D02*
X02423Y-06366D01*
X02384Y-06290D01*
X02384Y-05604D01*
X03413Y-06404D02*
X03413Y-05604D01*
X03680Y-06175D01*
X03947Y-05604D01*
X03947Y-06404D01*
X04670Y-06404D02*
X04670Y-05985D01*
X04632Y-05909D01*
X04556Y-05870D01*
X04404Y-05870D01*
X04327Y-05909D01*
X04670Y-06366D02*
X04594Y-06404D01*
X04404Y-06404D01*
X04327Y-06366D01*
X04289Y-06290D01*
X04289Y-06213D01*
X04327Y-06137D01*
X04404Y-06099D01*
X04594Y-06099D01*
X04670Y-06061D01*
X05051Y-05870D02*
X05051Y-06670D01*
X05051Y-05909D02*
X05128Y-05870D01*
X05280Y-05870D01*
X05356Y-05909D01*
X05394Y-05947D01*
X05432Y-06023D01*
X05432Y-06251D01*
X05394Y-06328D01*
X05356Y-06366D01*
X05280Y-06404D01*
X05128Y-06404D01*
X05051Y-06366D01*
X05775Y-06328D02*
X05814Y-06366D01*
X05775Y-06404D01*
X05737Y-06366D01*
X05775Y-06328D01*
X05775Y-06404D01*
X05775Y-05909D02*
X05814Y-05947D01*
X05775Y-05985D01*
X05737Y-05947D01*
X05775Y-05909D01*
X05775Y-05985D01*
X-00351Y-07635D02*
X-00101Y-07885D01*
X-00101Y-07635D02*
X-00351Y-07885D01*
X00442Y-07284D02*
X00518Y-07284D01*
X00594Y-07322D01*
X00632Y-07360D01*
X00670Y-07436D01*
X00709Y-07589D01*
X00709Y-07779D01*
X00670Y-07931D01*
X00632Y-08008D01*
X00594Y-08046D01*
X00518Y-08084D01*
X00442Y-08084D01*
X00366Y-08046D01*
X00328Y-08008D01*
X00289Y-07931D01*
X00251Y-07779D01*
X00251Y-07589D01*
X00289Y-07436D01*
X00328Y-07360D01*
X00366Y-07322D01*
X00442Y-07284D01*
X01051Y-08008D02*
X01090Y-08046D01*
X01051Y-08084D01*
X01013Y-08046D01*
X01051Y-08008D01*
X01051Y-08084D01*
X01585Y-07284D02*
X01661Y-07284D01*
X01737Y-07322D01*
X01775Y-07360D01*
X01813Y-07436D01*
X01852Y-07589D01*
X01852Y-07779D01*
X01813Y-07931D01*
X01775Y-08008D01*
X01737Y-08046D01*
X01661Y-08084D01*
X01585Y-08084D01*
X01509Y-08046D01*
X01471Y-08008D01*
X01432Y-07931D01*
X01394Y-07779D01*
X01394Y-07589D01*
X01432Y-07436D01*
X01471Y-07360D01*
X01509Y-07322D01*
X01585Y-07284D01*
X02156Y-07360D02*
X02194Y-07322D01*
X02271Y-07284D01*
X02461Y-07284D01*
X02537Y-07322D01*
X02575Y-07360D01*
X02614Y-07436D01*
X02614Y-07512D01*
X02575Y-07627D01*
X02118Y-08084D01*
X02614Y-08084D01*
X03337Y-07284D02*
X02956Y-07284D01*
X02918Y-07665D01*
X02956Y-07627D01*
X03033Y-07589D01*
X03223Y-07589D01*
X03299Y-07627D01*
X03337Y-07665D01*
X03376Y-07741D01*
X03376Y-07931D01*
X03337Y-08008D01*
X03299Y-08046D01*
X03223Y-08084D01*
X03033Y-08084D01*
X02956Y-08046D01*
X02918Y-08008D01*
X03680Y-07284D02*
X03680Y-07436D01*
X03985Y-07284D02*
X03985Y-07436D01*
X05510Y-07246D02*
X04824Y-08274D01*
X06539Y-07284D02*
X06615Y-07284D01*
X06691Y-07322D01*
X06729Y-07360D01*
X06767Y-07436D01*
X06806Y-07589D01*
X06806Y-07779D01*
X06767Y-07931D01*
X06729Y-08008D01*
X06691Y-08046D01*
X06615Y-08084D01*
X06539Y-08084D01*
X06463Y-08046D01*
X06425Y-08008D01*
X06386Y-07931D01*
X06348Y-07779D01*
X06348Y-07589D01*
X06386Y-07436D01*
X06425Y-07360D01*
X06463Y-07322D01*
X06539Y-07284D01*
X07148Y-08008D02*
X07187Y-08046D01*
X07148Y-08084D01*
X07110Y-08046D01*
X07148Y-08008D01*
X07148Y-08084D01*
X07872Y-07284D02*
X07720Y-07284D01*
X07644Y-07322D01*
X07606Y-07360D01*
X07529Y-07474D01*
X07491Y-07627D01*
X07491Y-07931D01*
X07529Y-08008D01*
X07568Y-08046D01*
X07644Y-08084D01*
X07796Y-08084D01*
X07872Y-08046D01*
X07910Y-08008D01*
X07949Y-07931D01*
X07949Y-07741D01*
X07910Y-07665D01*
X07872Y-07627D01*
X07796Y-07589D01*
X07644Y-07589D01*
X07568Y-07627D01*
X07529Y-07665D01*
X07491Y-07741D01*
X08634Y-07550D02*
X08634Y-08084D01*
X08444Y-07246D02*
X08253Y-07817D01*
X08749Y-07817D01*
X09053Y-08084D02*
X09053Y-07550D01*
X09053Y-07627D02*
X09092Y-07589D01*
X09168Y-07550D01*
X09282Y-07550D01*
X09358Y-07589D01*
X09396Y-07665D01*
X09396Y-08084D01*
X09396Y-07665D02*
X09434Y-07589D01*
X09511Y-07550D01*
X09625Y-07550D01*
X09701Y-07589D01*
X09739Y-07665D01*
X09739Y-08084D01*
X10120Y-08084D02*
X10120Y-07550D01*
X10120Y-07627D02*
X10159Y-07589D01*
X10235Y-07550D01*
X10349Y-07550D01*
X10425Y-07589D01*
X10463Y-07665D01*
X10463Y-08084D01*
X10463Y-07665D02*
X10501Y-07589D01*
X10578Y-07550D01*
X10692Y-07550D01*
X10768Y-07589D01*
X10806Y-07665D01*
X10806Y-08084D01*
X12026Y-08389D02*
X11988Y-08350D01*
X11912Y-08236D01*
X11874Y-08160D01*
X11836Y-08046D01*
X11797Y-07855D01*
X11797Y-07703D01*
X11836Y-07512D01*
X11874Y-07398D01*
X11912Y-07322D01*
X11988Y-07208D01*
X12026Y-07170D01*
X12254Y-07284D02*
X12788Y-07284D01*
X12445Y-08084D01*
X13702Y-08084D02*
X13702Y-07284D01*
X14045Y-08084D02*
X14045Y-07665D01*
X14007Y-07589D01*
X13931Y-07550D01*
X13817Y-07550D01*
X13741Y-07589D01*
X13702Y-07627D01*
X14541Y-08084D02*
X14465Y-08046D01*
X14426Y-08008D01*
X14388Y-07931D01*
X14388Y-07703D01*
X14426Y-07627D01*
X14465Y-07589D01*
X14541Y-07550D01*
X14655Y-07550D01*
X14731Y-07589D01*
X14769Y-07627D01*
X14807Y-07703D01*
X14807Y-07931D01*
X14769Y-08008D01*
X14731Y-08046D01*
X14655Y-08084D01*
X14541Y-08084D01*
X15265Y-08084D02*
X15189Y-08046D01*
X15150Y-07970D01*
X15150Y-07284D01*
X15874Y-08046D02*
X15798Y-08084D01*
X15646Y-08084D01*
X15569Y-08046D01*
X15531Y-07970D01*
X15531Y-07665D01*
X15569Y-07589D01*
X15646Y-07550D01*
X15798Y-07550D01*
X15874Y-07589D01*
X15912Y-07665D01*
X15912Y-07741D01*
X15531Y-07817D01*
X16217Y-08046D02*
X16294Y-08084D01*
X16446Y-08084D01*
X16522Y-08046D01*
X16560Y-07970D01*
X16560Y-07931D01*
X16522Y-07855D01*
X16446Y-07817D01*
X16332Y-07817D01*
X16255Y-07779D01*
X16217Y-07703D01*
X16217Y-07665D01*
X16255Y-07589D01*
X16332Y-07550D01*
X16446Y-07550D01*
X16522Y-07589D01*
X16827Y-08389D02*
X16865Y-08350D01*
X16942Y-08236D01*
X16980Y-08160D01*
X17018Y-08046D01*
X17056Y-07855D01*
X17056Y-07703D01*
X17018Y-07512D01*
X16980Y-07398D01*
X16942Y-07322D01*
X16865Y-07208D01*
X16827Y-07170D01*
G54D10*
X-00101Y-08816D02*
X-00105Y-08847D01*
X-00114Y-08876D01*
X-00128Y-08904D01*
X-00148Y-08928D01*
X-00172Y-08948D01*
X-00199Y-08963D01*
X-00229Y-08972D01*
X-00260Y-08975D01*
X-00290Y-08973D01*
X-00320Y-08964D01*
X-00348Y-08949D01*
X-00372Y-08930D01*
X-00393Y-08906D01*
X-00408Y-08879D01*
X-00417Y-08849D01*
X-00420Y-08818D01*
X-00418Y-08788D01*
X-00409Y-08758D01*
X-00395Y-08730D01*
X-00376Y-08705D01*
X-00352Y-08685D01*
X-00325Y-08670D01*
X-00295Y-08660D01*
X-00264Y-08657D01*
X-00234Y-08659D01*
X-00204Y-08667D01*
X-00176Y-08681D01*
X-00151Y-08701D01*
X-00131Y-08724D01*
X-00115Y-08751D01*
X-00105Y-08781D01*
X-00102Y-08812D01*
X-00101Y-08816D01*
G54D12*
X00442Y-08340D02*
X00518Y-08340D01*
X00594Y-08378D01*
X00632Y-08416D01*
X00670Y-08492D01*
X00709Y-08645D01*
X00709Y-08835D01*
X00670Y-08987D01*
X00632Y-09064D01*
X00594Y-09102D01*
X00518Y-09140D01*
X00442Y-09140D01*
X00366Y-09102D01*
X00328Y-09064D01*
X00289Y-08987D01*
X00251Y-08835D01*
X00251Y-08645D01*
X00289Y-08492D01*
X00328Y-08416D01*
X00366Y-08378D01*
X00442Y-08340D01*
X01051Y-09064D02*
X01090Y-09102D01*
X01051Y-09140D01*
X01013Y-09102D01*
X01051Y-09064D01*
X01051Y-09140D01*
X01585Y-08340D02*
X01661Y-08340D01*
X01737Y-08378D01*
X01775Y-08416D01*
X01813Y-08492D01*
X01852Y-08645D01*
X01852Y-08835D01*
X01813Y-08987D01*
X01775Y-09064D01*
X01737Y-09102D01*
X01661Y-09140D01*
X01585Y-09140D01*
X01509Y-09102D01*
X01471Y-09064D01*
X01432Y-08987D01*
X01394Y-08835D01*
X01394Y-08645D01*
X01432Y-08492D01*
X01471Y-08416D01*
X01509Y-08378D01*
X01585Y-08340D01*
X02118Y-08340D02*
X02614Y-08340D01*
X02347Y-08645D01*
X02461Y-08645D01*
X02537Y-08683D01*
X02575Y-08721D01*
X02614Y-08797D01*
X02614Y-08987D01*
X02575Y-09064D01*
X02537Y-09102D01*
X02461Y-09140D01*
X02233Y-09140D01*
X02156Y-09102D01*
X02118Y-09064D01*
X02918Y-08416D02*
X02956Y-08378D01*
X03033Y-08340D01*
X03223Y-08340D01*
X03299Y-08378D01*
X03337Y-08416D01*
X03376Y-08492D01*
X03376Y-08568D01*
X03337Y-08683D01*
X02880Y-09140D01*
X03376Y-09140D01*
X03680Y-08340D02*
X03680Y-08492D01*
X03985Y-08340D02*
X03985Y-08492D01*
X05510Y-08302D02*
X04824Y-09330D01*
X06539Y-08340D02*
X06615Y-08340D01*
X06691Y-08378D01*
X06729Y-08416D01*
X06767Y-08492D01*
X06806Y-08645D01*
X06806Y-08835D01*
X06767Y-08987D01*
X06729Y-09064D01*
X06691Y-09102D01*
X06615Y-09140D01*
X06539Y-09140D01*
X06463Y-09102D01*
X06425Y-09064D01*
X06386Y-08987D01*
X06348Y-08835D01*
X06348Y-08645D01*
X06386Y-08492D01*
X06425Y-08416D01*
X06463Y-08378D01*
X06539Y-08340D01*
X07148Y-09064D02*
X07187Y-09102D01*
X07148Y-09140D01*
X07110Y-09102D01*
X07148Y-09064D01*
X07148Y-09140D01*
X07644Y-08683D02*
X07568Y-08645D01*
X07529Y-08606D01*
X07491Y-08530D01*
X07491Y-08492D01*
X07529Y-08416D01*
X07568Y-08378D01*
X07644Y-08340D01*
X07796Y-08340D01*
X07872Y-08378D01*
X07910Y-08416D01*
X07949Y-08492D01*
X07949Y-08530D01*
X07910Y-08606D01*
X07872Y-08645D01*
X07796Y-08683D01*
X07644Y-08683D01*
X07568Y-08721D01*
X07529Y-08759D01*
X07491Y-08835D01*
X07491Y-08987D01*
X07529Y-09064D01*
X07568Y-09102D01*
X07644Y-09140D01*
X07796Y-09140D01*
X07872Y-09102D01*
X07910Y-09064D01*
X07949Y-08987D01*
X07949Y-08835D01*
X07910Y-08759D01*
X07872Y-08721D01*
X07796Y-08683D01*
X08711Y-09140D02*
X08253Y-09140D01*
X08482Y-09140D02*
X08482Y-08340D01*
X08406Y-08454D01*
X08330Y-08530D01*
X08253Y-08568D01*
X09053Y-09140D02*
X09053Y-08606D01*
X09053Y-08683D02*
X09092Y-08645D01*
X09168Y-08606D01*
X09282Y-08606D01*
X09358Y-08645D01*
X09396Y-08721D01*
X09396Y-09140D01*
X09396Y-08721D02*
X09434Y-08645D01*
X09511Y-08606D01*
X09625Y-08606D01*
X09701Y-08645D01*
X09739Y-08721D01*
X09739Y-09140D01*
X10120Y-09140D02*
X10120Y-08606D01*
X10120Y-08683D02*
X10159Y-08645D01*
X10235Y-08606D01*
X10349Y-08606D01*
X10425Y-08645D01*
X10463Y-08721D01*
X10463Y-09140D01*
X10463Y-08721D02*
X10501Y-08645D01*
X10578Y-08606D01*
X10692Y-08606D01*
X10768Y-08645D01*
X10806Y-08721D01*
X10806Y-09140D01*
X12026Y-09445D02*
X11988Y-09406D01*
X11912Y-09292D01*
X11874Y-09216D01*
X11836Y-09102D01*
X11797Y-08911D01*
X11797Y-08759D01*
X11836Y-08568D01*
X11874Y-08454D01*
X11912Y-08378D01*
X11988Y-08264D01*
X12026Y-08226D01*
X12673Y-08606D02*
X12673Y-09140D01*
X12483Y-08302D02*
X12292Y-08873D01*
X12788Y-08873D01*
X13702Y-09140D02*
X13702Y-08340D01*
X14045Y-09140D02*
X14045Y-08721D01*
X14007Y-08645D01*
X13931Y-08606D01*
X13817Y-08606D01*
X13741Y-08645D01*
X13702Y-08683D01*
X14541Y-09140D02*
X14465Y-09102D01*
X14426Y-09064D01*
X14388Y-08987D01*
X14388Y-08759D01*
X14426Y-08683D01*
X14465Y-08645D01*
X14541Y-08606D01*
X14655Y-08606D01*
X14731Y-08645D01*
X14769Y-08683D01*
X14807Y-08759D01*
X14807Y-08987D01*
X14769Y-09064D01*
X14731Y-09102D01*
X14655Y-09140D01*
X14541Y-09140D01*
X15265Y-09140D02*
X15189Y-09102D01*
X15150Y-09026D01*
X15150Y-08340D01*
X15874Y-09102D02*
X15798Y-09140D01*
X15646Y-09140D01*
X15569Y-09102D01*
X15531Y-09026D01*
X15531Y-08721D01*
X15569Y-08645D01*
X15646Y-08606D01*
X15798Y-08606D01*
X15874Y-08645D01*
X15912Y-08721D01*
X15912Y-08797D01*
X15531Y-08873D01*
X16217Y-09102D02*
X16294Y-09140D01*
X16446Y-09140D01*
X16522Y-09102D01*
X16560Y-09026D01*
X16560Y-08987D01*
X16522Y-08911D01*
X16446Y-08873D01*
X16332Y-08873D01*
X16255Y-08835D01*
X16217Y-08759D01*
X16217Y-08721D01*
X16255Y-08645D01*
X16332Y-08606D01*
X16446Y-08606D01*
X16522Y-08645D01*
X16827Y-09445D02*
X16865Y-09406D01*
X16942Y-09292D01*
X16980Y-09216D01*
X17018Y-09102D01*
X17056Y-08911D01*
X17056Y-08759D01*
X17018Y-08568D01*
X16980Y-08454D01*
X16942Y-08378D01*
X16865Y-08264D01*
X16827Y-08226D01*
X-00301Y-09672D02*
X-00301Y-10072D01*
X-00101Y-09872D02*
X-00501Y-09872D01*
X00442Y-09396D02*
X00518Y-09396D01*
X00594Y-09434D01*
X00632Y-09472D01*
X00670Y-09548D01*
X00709Y-09701D01*
X00709Y-09891D01*
X00670Y-10043D01*
X00632Y-10120D01*
X00594Y-10158D01*
X00518Y-10196D01*
X00442Y-10196D01*
X00366Y-10158D01*
X00328Y-10120D01*
X00289Y-10043D01*
X00251Y-09891D01*
X00251Y-09701D01*
X00289Y-09548D01*
X00328Y-09472D01*
X00366Y-09434D01*
X00442Y-09396D01*
X01051Y-10120D02*
X01090Y-10158D01*
X01051Y-10196D01*
X01013Y-10158D01*
X01051Y-10120D01*
X01051Y-10196D01*
X01585Y-09396D02*
X01661Y-09396D01*
X01737Y-09434D01*
X01775Y-09472D01*
X01813Y-09548D01*
X01852Y-09701D01*
X01852Y-09891D01*
X01813Y-10043D01*
X01775Y-10120D01*
X01737Y-10158D01*
X01661Y-10196D01*
X01585Y-10196D01*
X01509Y-10158D01*
X01471Y-10120D01*
X01432Y-10043D01*
X01394Y-09891D01*
X01394Y-09701D01*
X01432Y-09548D01*
X01471Y-09472D01*
X01509Y-09434D01*
X01585Y-09396D01*
X02537Y-09662D02*
X02537Y-10196D01*
X02347Y-09358D02*
X02156Y-09929D01*
X02652Y-09929D01*
X03109Y-09396D02*
X03185Y-09396D01*
X03261Y-09434D01*
X03299Y-09472D01*
X03337Y-09548D01*
X03376Y-09701D01*
X03376Y-09891D01*
X03337Y-10043D01*
X03299Y-10120D01*
X03261Y-10158D01*
X03185Y-10196D01*
X03109Y-10196D01*
X03033Y-10158D01*
X02995Y-10120D01*
X02956Y-10043D01*
X02918Y-09891D01*
X02918Y-09701D01*
X02956Y-09548D01*
X02995Y-09472D01*
X03033Y-09434D01*
X03109Y-09396D01*
X03680Y-09396D02*
X03680Y-09548D01*
X03985Y-09396D02*
X03985Y-09548D01*
X05510Y-09358D02*
X04824Y-10386D01*
X06806Y-10196D02*
X06348Y-10196D01*
X06577Y-10196D02*
X06577Y-09396D01*
X06501Y-09510D01*
X06425Y-09586D01*
X06348Y-09624D01*
X07148Y-10120D02*
X07187Y-10158D01*
X07148Y-10196D01*
X07110Y-10158D01*
X07148Y-10120D01*
X07148Y-10196D01*
X07682Y-09396D02*
X07758Y-09396D01*
X07834Y-09434D01*
X07872Y-09472D01*
X07910Y-09548D01*
X07949Y-09701D01*
X07949Y-09891D01*
X07910Y-10043D01*
X07872Y-10120D01*
X07834Y-10158D01*
X07758Y-10196D01*
X07682Y-10196D01*
X07606Y-10158D01*
X07568Y-10120D01*
X07529Y-10043D01*
X07491Y-09891D01*
X07491Y-09701D01*
X07529Y-09548D01*
X07568Y-09472D01*
X07606Y-09434D01*
X07682Y-09396D01*
X08253Y-09472D02*
X08291Y-09434D01*
X08368Y-09396D01*
X08558Y-09396D01*
X08634Y-09434D01*
X08672Y-09472D01*
X08711Y-09548D01*
X08711Y-09624D01*
X08672Y-09739D01*
X08215Y-10196D01*
X08711Y-10196D01*
X09053Y-10196D02*
X09053Y-09662D01*
X09053Y-09739D02*
X09092Y-09701D01*
X09168Y-09662D01*
X09282Y-09662D01*
X09358Y-09701D01*
X09396Y-09777D01*
X09396Y-10196D01*
X09396Y-09777D02*
X09434Y-09701D01*
X09511Y-09662D01*
X09625Y-09662D01*
X09701Y-09701D01*
X09739Y-09777D01*
X09739Y-10196D01*
X10120Y-10196D02*
X10120Y-09662D01*
X10120Y-09739D02*
X10159Y-09701D01*
X10235Y-09662D01*
X10349Y-09662D01*
X10425Y-09701D01*
X10463Y-09777D01*
X10463Y-10196D01*
X10463Y-09777D02*
X10501Y-09701D01*
X10578Y-09662D01*
X10692Y-09662D01*
X10768Y-09701D01*
X10806Y-09777D01*
X10806Y-10196D01*
X12026Y-10501D02*
X11988Y-10462D01*
X11912Y-10348D01*
X11874Y-10272D01*
X11836Y-10158D01*
X11797Y-09967D01*
X11797Y-09815D01*
X11836Y-09624D01*
X11874Y-09510D01*
X11912Y-09434D01*
X11988Y-09320D01*
X12026Y-09282D01*
X12750Y-10196D02*
X12292Y-10196D01*
X12521Y-10196D02*
X12521Y-09396D01*
X12445Y-09510D01*
X12369Y-09586D01*
X12292Y-09624D01*
X13245Y-09396D02*
X13321Y-09396D01*
X13397Y-09434D01*
X13435Y-09472D01*
X13473Y-09548D01*
X13512Y-09701D01*
X13512Y-09891D01*
X13473Y-10043D01*
X13435Y-10120D01*
X13397Y-10158D01*
X13321Y-10196D01*
X13245Y-10196D01*
X13169Y-10158D01*
X13131Y-10120D01*
X13092Y-10043D01*
X13054Y-09891D01*
X13054Y-09701D01*
X13092Y-09548D01*
X13131Y-09472D01*
X13169Y-09434D01*
X13245Y-09396D01*
X14464Y-10196D02*
X14464Y-09396D01*
X14807Y-10196D02*
X14807Y-09777D01*
X14769Y-09701D01*
X14693Y-09662D01*
X14579Y-09662D01*
X14503Y-09701D01*
X14464Y-09739D01*
X15303Y-10196D02*
X15227Y-10158D01*
X15188Y-10120D01*
X15150Y-10043D01*
X15150Y-09815D01*
X15188Y-09739D01*
X15227Y-09701D01*
X15303Y-09662D01*
X15417Y-09662D01*
X15493Y-09701D01*
X15531Y-09739D01*
X15569Y-09815D01*
X15569Y-10043D01*
X15531Y-10120D01*
X15493Y-10158D01*
X15417Y-10196D01*
X15303Y-10196D01*
X16027Y-10196D02*
X15951Y-10158D01*
X15912Y-10082D01*
X15912Y-09396D01*
X16636Y-10158D02*
X16560Y-10196D01*
X16408Y-10196D01*
X16331Y-10158D01*
X16293Y-10082D01*
X16293Y-09777D01*
X16331Y-09701D01*
X16408Y-09662D01*
X16560Y-09662D01*
X16636Y-09701D01*
X16674Y-09777D01*
X16674Y-09853D01*
X16293Y-09929D01*
X16979Y-10158D02*
X17056Y-10196D01*
X17208Y-10196D01*
X17284Y-10158D01*
X17322Y-10082D01*
X17322Y-10043D01*
X17284Y-09967D01*
X17208Y-09929D01*
X17094Y-09929D01*
X17017Y-09891D01*
X16979Y-09815D01*
X16979Y-09777D01*
X17017Y-09701D01*
X17094Y-09662D01*
X17208Y-09662D01*
X17284Y-09701D01*
X17589Y-10501D02*
X17627Y-10462D01*
X17704Y-10348D01*
X17742Y-10272D01*
X17780Y-10158D01*
X17818Y-09967D01*
X17818Y-09815D01*
X17780Y-09624D01*
X17742Y-09510D01*
X17704Y-09434D01*
X17627Y-09320D01*
X17589Y-09282D01*
M02*
