G04 #@! TF.FileFunction,Legend,Top*
%FSLAX46Y46*%
G04 Gerber Fmt 4.6, Leading zero omitted, Abs format (unit mm)*
G04 Created by KiCad (PCBNEW 0.201511011201+6288~30~ubuntu15.10.1-product) date Wed Nov  4 22:56:01 2015*
%MOMM*%
G01*
G04 APERTURE LIST*
%ADD10C,0.150000*%
%ADD11C,0.228600*%
%ADD12C,0.076200*%
%ADD13C,0.254000*%
%ADD14C,0.127000*%
%ADD15C,0.152400*%
%ADD16R,1.397000X1.524000*%
%ADD17R,1.651000X1.905000*%
%ADD18C,2.286000*%
%ADD19R,2.286000X2.286000*%
%ADD20R,1.524000X1.270000*%
%ADD21R,1.905000X1.016000*%
%ADD22C,1.905000*%
%ADD23R,2.006600X1.808480*%
%ADD24C,1.676400*%
%ADD25R,6.350000X2.286000*%
G04 APERTURE END LIST*
D10*
D11*
X25309286Y-30216929D02*
X25309286Y-31740929D01*
X25309286Y-30289500D02*
X25406048Y-30216929D01*
X25599571Y-30216929D01*
X25696333Y-30289500D01*
X25744714Y-30362071D01*
X25793095Y-30507214D01*
X25793095Y-30942643D01*
X25744714Y-31087786D01*
X25696333Y-31160357D01*
X25599571Y-31232929D01*
X25406048Y-31232929D01*
X25309286Y-31160357D01*
X26228524Y-31087786D02*
X26276905Y-31160357D01*
X26228524Y-31232929D01*
X26180143Y-31160357D01*
X26228524Y-31087786D01*
X26228524Y-31232929D01*
X27147762Y-30216929D02*
X27147762Y-31232929D01*
X26712334Y-30216929D02*
X26712334Y-31015214D01*
X26760715Y-31160357D01*
X26857477Y-31232929D01*
X27002619Y-31232929D01*
X27099381Y-31160357D01*
X27147762Y-31087786D01*
X27631572Y-31087786D02*
X27679953Y-31160357D01*
X27631572Y-31232929D01*
X27583191Y-31160357D01*
X27631572Y-31087786D01*
X27631572Y-31232929D01*
X28260525Y-31232929D02*
X28163763Y-31160357D01*
X28115382Y-31015214D01*
X28115382Y-29708929D01*
X28647572Y-31087786D02*
X28695953Y-31160357D01*
X28647572Y-31232929D01*
X28599191Y-31160357D01*
X28647572Y-31087786D01*
X28647572Y-31232929D01*
X29083001Y-31160357D02*
X29179763Y-31232929D01*
X29373287Y-31232929D01*
X29470048Y-31160357D01*
X29518429Y-31015214D01*
X29518429Y-30942643D01*
X29470048Y-30797500D01*
X29373287Y-30724929D01*
X29228144Y-30724929D01*
X29131382Y-30652357D01*
X29083001Y-30507214D01*
X29083001Y-30434643D01*
X29131382Y-30289500D01*
X29228144Y-30216929D01*
X29373287Y-30216929D01*
X29470048Y-30289500D01*
X29953858Y-31087786D02*
X30002239Y-31160357D01*
X29953858Y-31232929D01*
X29905477Y-31160357D01*
X29953858Y-31087786D01*
X29953858Y-31232929D01*
X30824715Y-31160357D02*
X30727953Y-31232929D01*
X30534430Y-31232929D01*
X30437668Y-31160357D01*
X30389287Y-31015214D01*
X30389287Y-30434643D01*
X30437668Y-30289500D01*
X30534430Y-30216929D01*
X30727953Y-30216929D01*
X30824715Y-30289500D01*
X30873096Y-30434643D01*
X30873096Y-30579786D01*
X30389287Y-30724929D01*
D12*
X27710191Y-26289000D02*
X27649714Y-26258762D01*
X27559000Y-26258762D01*
X27468286Y-26289000D01*
X27407810Y-26349476D01*
X27377571Y-26409952D01*
X27347333Y-26530905D01*
X27347333Y-26621619D01*
X27377571Y-26742571D01*
X27407810Y-26803048D01*
X27468286Y-26863524D01*
X27559000Y-26893762D01*
X27619476Y-26893762D01*
X27710191Y-26863524D01*
X27740429Y-26833286D01*
X27740429Y-26621619D01*
X27619476Y-26621619D01*
X28012571Y-26893762D02*
X28012571Y-26258762D01*
X28375429Y-26893762D01*
X28375429Y-26258762D01*
X28677809Y-26893762D02*
X28677809Y-26258762D01*
X28829000Y-26258762D01*
X28919714Y-26289000D01*
X28980190Y-26349476D01*
X29010429Y-26409952D01*
X29040667Y-26530905D01*
X29040667Y-26621619D01*
X29010429Y-26742571D01*
X28980190Y-26803048D01*
X28919714Y-26863524D01*
X28829000Y-26893762D01*
X28677809Y-26893762D01*
D13*
X31750000Y-25908000D02*
X31750000Y-25400000D01*
X25400000Y-25908000D02*
X31750000Y-25908000D01*
X31750000Y-35306000D02*
X31750000Y-35814000D01*
X25400000Y-35306000D02*
X31750000Y-35306000D01*
X25400000Y-35306000D02*
X25400000Y-25908000D01*
X50800000Y-35814000D02*
X31750000Y-35814000D01*
X50800000Y-25400000D02*
X50800000Y-35814000D01*
X31750000Y-25400000D02*
X50800000Y-25400000D01*
D14*
X41148000Y-30988000D02*
X42291000Y-30988000D01*
X41783000Y-31115000D02*
X41592500Y-31115000D01*
X41973500Y-31242000D02*
X41465500Y-31242000D01*
X42100500Y-31369000D02*
X41338500Y-31369000D01*
X41719500Y-31496000D02*
X41211500Y-31496000D01*
X41211500Y-31496000D02*
X41719500Y-30988000D01*
X41719500Y-30988000D02*
X42227500Y-31496000D01*
X42227500Y-31496000D02*
X41719500Y-31496000D01*
X42481500Y-29654500D02*
X42481500Y-29337000D01*
X42481500Y-29337000D02*
X40957500Y-29337000D01*
X40957500Y-29337000D02*
X40957500Y-29654500D01*
X40957500Y-31559500D02*
X40957500Y-33147000D01*
X40957500Y-33147000D02*
X42481500Y-33147000D01*
X42481500Y-33147000D02*
X42481500Y-31559500D01*
X42799000Y-31559500D02*
X42799000Y-33528000D01*
X42799000Y-33528000D02*
X44831000Y-33528000D01*
X44831000Y-33528000D02*
X44831000Y-29591000D01*
X44831000Y-29591000D02*
X42799000Y-29591000D01*
X42799000Y-29591000D02*
X42799000Y-31559500D01*
D13*
X47434500Y-26289000D02*
X47434500Y-27559000D01*
X34734500Y-26289000D02*
X34734500Y-27559000D01*
X34734500Y-26289000D02*
X35369500Y-25654000D01*
X35369500Y-25654000D02*
X36639500Y-25654000D01*
X36639500Y-25654000D02*
X37274500Y-26289000D01*
X37274500Y-26289000D02*
X37909500Y-25654000D01*
X37909500Y-25654000D02*
X39179500Y-25654000D01*
X39179500Y-25654000D02*
X39814500Y-26289000D01*
X39814500Y-26289000D02*
X40449500Y-25654000D01*
X40449500Y-25654000D02*
X41719500Y-25654000D01*
X41719500Y-25654000D02*
X42354500Y-26289000D01*
X42354500Y-26289000D02*
X42989500Y-25654000D01*
X42989500Y-25654000D02*
X44259500Y-25654000D01*
X44259500Y-25654000D02*
X44894500Y-26289000D01*
X44894500Y-26289000D02*
X45529500Y-25654000D01*
X45529500Y-25654000D02*
X46799500Y-25654000D01*
X46799500Y-25654000D02*
X47434500Y-26289000D01*
X47434500Y-27559000D02*
X46799500Y-28194000D01*
X46799500Y-28194000D02*
X45529500Y-28194000D01*
X45529500Y-28194000D02*
X44894500Y-27559000D01*
X44894500Y-27559000D02*
X44259500Y-28194000D01*
X44259500Y-28194000D02*
X42989500Y-28194000D01*
X42989500Y-28194000D02*
X42354500Y-27559000D01*
X42354500Y-27559000D02*
X41719500Y-28194000D01*
X41719500Y-28194000D02*
X40449500Y-28194000D01*
X40449500Y-28194000D02*
X39814500Y-27559000D01*
X39814500Y-27559000D02*
X39179500Y-28194000D01*
X39179500Y-28194000D02*
X37909500Y-28194000D01*
X37909500Y-28194000D02*
X37274500Y-27559000D01*
X37274500Y-27559000D02*
X36639500Y-28194000D01*
X36639500Y-28194000D02*
X35369500Y-28194000D01*
X35369500Y-28194000D02*
X34734500Y-27559000D01*
X34734500Y-27559000D02*
X34734500Y-28194000D01*
X34734500Y-28194000D02*
X32194500Y-28194000D01*
X32194500Y-28194000D02*
X32194500Y-25717500D01*
X32194500Y-25717500D02*
X32194500Y-25654000D01*
X32194500Y-25654000D02*
X34734500Y-25654000D01*
X34734500Y-25654000D02*
X34734500Y-26289000D01*
X49085500Y-31877000D02*
X47815500Y-31877000D01*
X47815500Y-31877000D02*
X47815500Y-29337000D01*
X47815500Y-29337000D02*
X48450500Y-29337000D01*
X48450500Y-29337000D02*
X47815500Y-28702000D01*
X47815500Y-28702000D02*
X47815500Y-28067000D01*
X47815500Y-28067000D02*
X47815500Y-27432000D01*
X47815500Y-27432000D02*
X48450500Y-26797000D01*
X48450500Y-26797000D02*
X49720500Y-26797000D01*
X49720500Y-26797000D02*
X50355500Y-27432000D01*
X50355500Y-27432000D02*
X50355500Y-28702000D01*
X50355500Y-28702000D02*
X49720500Y-29337000D01*
X49720500Y-29337000D02*
X50355500Y-29337000D01*
X50355500Y-29337000D02*
X50355500Y-31877000D01*
X50355500Y-31877000D02*
X49085500Y-31877000D01*
D14*
X45148500Y-34353500D02*
X45148500Y-35369500D01*
X45021500Y-34734500D02*
X45021500Y-34988500D01*
X44894500Y-35179000D02*
X44894500Y-34544000D01*
X44767500Y-34861500D02*
X44767500Y-34353500D01*
X44767500Y-34353500D02*
X45148500Y-34861500D01*
X45148500Y-34861500D02*
X44767500Y-35369500D01*
X44767500Y-35369500D02*
X44767500Y-34861500D01*
X46418500Y-34163000D02*
X46799500Y-34163000D01*
X46799500Y-34163000D02*
X46799500Y-35560000D01*
X46799500Y-35560000D02*
X46418500Y-35560000D01*
X43116500Y-34163000D02*
X44640500Y-34163000D01*
X43116500Y-34163000D02*
X43116500Y-35560000D01*
X43116500Y-35560000D02*
X44640500Y-35560000D01*
X38735000Y-29527500D02*
X38735000Y-34607500D01*
X38735000Y-34607500D02*
X34163000Y-34607500D01*
X34163000Y-34607500D02*
X34163000Y-29527500D01*
X34163000Y-29527500D02*
X38735000Y-29527500D01*
X37211000Y-29527500D02*
X37211000Y-30035500D01*
X37211000Y-30035500D02*
X35941000Y-30035500D01*
X35941000Y-30035500D02*
X35941000Y-29527500D01*
D15*
X47371000Y-30734000D02*
X47371000Y-29146500D01*
X45212000Y-29146500D02*
X45212000Y-30734000D01*
X45212000Y-31496000D02*
X45212000Y-33020000D01*
X45212000Y-33020000D02*
X45212000Y-33083500D01*
X47371000Y-33083500D02*
X47371000Y-31496000D01*
D13*
X26289000Y-26035000D02*
X26289000Y-27051000D01*
X26289000Y-35179000D02*
X26289000Y-34163000D01*
X31750000Y-26035000D02*
X31750000Y-35179000D01*
X26289000Y-26035000D02*
X31750000Y-26035000D01*
X26289000Y-35179000D02*
X31750000Y-35179000D01*
D14*
X41157072Y-29173714D02*
X41157072Y-28411714D01*
X41338500Y-28411714D01*
X41447357Y-28448000D01*
X41519929Y-28520571D01*
X41556214Y-28593143D01*
X41592500Y-28738286D01*
X41592500Y-28847143D01*
X41556214Y-28992286D01*
X41519929Y-29064857D01*
X41447357Y-29137429D01*
X41338500Y-29173714D01*
X41157072Y-29173714D01*
X41882786Y-28484286D02*
X41919072Y-28448000D01*
X41991643Y-28411714D01*
X42173072Y-28411714D01*
X42245643Y-28448000D01*
X42281929Y-28484286D01*
X42318214Y-28556857D01*
X42318214Y-28629429D01*
X42281929Y-28738286D01*
X41846500Y-29173714D01*
X42318214Y-29173714D01*
X43688000Y-29228143D02*
X43651714Y-29264429D01*
X43542857Y-29300714D01*
X43470286Y-29300714D01*
X43361429Y-29264429D01*
X43288857Y-29191857D01*
X43252572Y-29119286D01*
X43216286Y-28974143D01*
X43216286Y-28865286D01*
X43252572Y-28720143D01*
X43288857Y-28647571D01*
X43361429Y-28575000D01*
X43470286Y-28538714D01*
X43542857Y-28538714D01*
X43651714Y-28575000D01*
X43688000Y-28611286D01*
X43978286Y-28611286D02*
X44014572Y-28575000D01*
X44087143Y-28538714D01*
X44268572Y-28538714D01*
X44341143Y-28575000D01*
X44377429Y-28611286D01*
X44413714Y-28683857D01*
X44413714Y-28756429D01*
X44377429Y-28865286D01*
X43942000Y-29300714D01*
X44413714Y-29300714D01*
X49248786Y-35206214D02*
X49248786Y-34444214D01*
X49684214Y-35206214D01*
X49684214Y-34444214D01*
X50047072Y-35206214D02*
X50047072Y-34444214D01*
X50228500Y-34444214D01*
X50337357Y-34480500D01*
X50409929Y-34553071D01*
X50446214Y-34625643D01*
X50482500Y-34770786D01*
X50482500Y-34879643D01*
X50446214Y-35024786D01*
X50409929Y-35097357D01*
X50337357Y-35169929D01*
X50228500Y-35206214D01*
X50047072Y-35206214D01*
X47634072Y-26379714D02*
X47634072Y-25617714D01*
X48069500Y-26379714D02*
X47742929Y-25944286D01*
X48069500Y-25617714D02*
X47634072Y-26053143D01*
X48359786Y-25690286D02*
X48396072Y-25654000D01*
X48468643Y-25617714D01*
X48650072Y-25617714D01*
X48722643Y-25654000D01*
X48758929Y-25690286D01*
X48795214Y-25762857D01*
X48795214Y-25835429D01*
X48758929Y-25944286D01*
X48323500Y-26379714D01*
X48795214Y-26379714D01*
X49539072Y-26633714D02*
X49539072Y-25871714D01*
X49829357Y-25871714D01*
X49901929Y-25908000D01*
X49938214Y-25944286D01*
X49974500Y-26016857D01*
X49974500Y-26125714D01*
X49938214Y-26198286D01*
X49901929Y-26234571D01*
X49829357Y-26270857D01*
X49539072Y-26270857D01*
X50700214Y-26633714D02*
X50264786Y-26633714D01*
X50482500Y-26633714D02*
X50482500Y-25871714D01*
X50409929Y-25980571D01*
X50337357Y-26053143D01*
X50264786Y-26089429D01*
X41728572Y-35206214D02*
X41728572Y-34444214D01*
X41910000Y-34444214D01*
X42018857Y-34480500D01*
X42091429Y-34553071D01*
X42127714Y-34625643D01*
X42164000Y-34770786D01*
X42164000Y-34879643D01*
X42127714Y-35024786D01*
X42091429Y-35097357D01*
X42018857Y-35169929D01*
X41910000Y-35206214D01*
X41728572Y-35206214D01*
X42418000Y-34444214D02*
X42889714Y-34444214D01*
X42635714Y-34734500D01*
X42744572Y-34734500D01*
X42817143Y-34770786D01*
X42853429Y-34807071D01*
X42889714Y-34879643D01*
X42889714Y-35061071D01*
X42853429Y-35133643D01*
X42817143Y-35169929D01*
X42744572Y-35206214D01*
X42526857Y-35206214D01*
X42454286Y-35169929D01*
X42418000Y-35133643D01*
X35677929Y-28538714D02*
X35677929Y-29155571D01*
X35714214Y-29228143D01*
X35750500Y-29264429D01*
X35823071Y-29300714D01*
X35968214Y-29300714D01*
X36040786Y-29264429D01*
X36077071Y-29228143D01*
X36113357Y-29155571D01*
X36113357Y-28538714D01*
X36875357Y-29300714D02*
X36439929Y-29300714D01*
X36657643Y-29300714D02*
X36657643Y-28538714D01*
X36585072Y-28647571D01*
X36512500Y-28720143D01*
X36439929Y-28756429D01*
D12*
X38184667Y-34244643D02*
X38184667Y-34063214D01*
X38329810Y-34280928D02*
X37821810Y-34153928D01*
X38329810Y-34026928D01*
X37821810Y-33954357D02*
X37821810Y-33736643D01*
X38329810Y-33845500D02*
X37821810Y-33845500D01*
X37821810Y-33664071D02*
X37821810Y-33446357D01*
X38329810Y-33555214D02*
X37821810Y-33555214D01*
X38329810Y-33319357D02*
X37821810Y-33319357D01*
X38329810Y-33137928D02*
X37821810Y-33137928D01*
X38329810Y-32920213D01*
X37821810Y-32920213D01*
X38087905Y-32666213D02*
X38329810Y-32666213D01*
X37821810Y-32793213D02*
X38087905Y-32666213D01*
X37821810Y-32539213D01*
X37991143Y-32248928D02*
X38329810Y-32248928D01*
X37797619Y-32339642D02*
X38160476Y-32430357D01*
X38160476Y-32194499D01*
X37821810Y-31867928D02*
X37821810Y-32049357D01*
X38063714Y-32067500D01*
X38039524Y-32049357D01*
X38015333Y-32013071D01*
X38015333Y-31922357D01*
X38039524Y-31886071D01*
X38063714Y-31867928D01*
X38112095Y-31849785D01*
X38233048Y-31849785D01*
X38281429Y-31867928D01*
X38305619Y-31886071D01*
X38329810Y-31922357D01*
X38329810Y-32013071D01*
X38305619Y-32049357D01*
X38281429Y-32067500D01*
X38136286Y-31686500D02*
X38136286Y-31396214D01*
X37870190Y-31232929D02*
X37846000Y-31214786D01*
X37821810Y-31178500D01*
X37821810Y-31087786D01*
X37846000Y-31051500D01*
X37870190Y-31033357D01*
X37918571Y-31015214D01*
X37966952Y-31015214D01*
X38039524Y-31033357D01*
X38329810Y-31251071D01*
X38329810Y-31015214D01*
X37821810Y-30779357D02*
X37821810Y-30743072D01*
X37846000Y-30706786D01*
X37870190Y-30688643D01*
X37918571Y-30670500D01*
X38015333Y-30652357D01*
X38136286Y-30652357D01*
X38233048Y-30670500D01*
X38281429Y-30688643D01*
X38305619Y-30706786D01*
X38329810Y-30743072D01*
X38329810Y-30779357D01*
X38305619Y-30815643D01*
X38281429Y-30833786D01*
X38233048Y-30851929D01*
X38136286Y-30870072D01*
X38015333Y-30870072D01*
X37918571Y-30851929D01*
X37870190Y-30833786D01*
X37846000Y-30815643D01*
X37821810Y-30779357D01*
X38305619Y-30507215D02*
X38329810Y-30452786D01*
X38329810Y-30362072D01*
X38305619Y-30325786D01*
X38281429Y-30307643D01*
X38233048Y-30289500D01*
X38184667Y-30289500D01*
X38136286Y-30307643D01*
X38112095Y-30325786D01*
X38087905Y-30362072D01*
X38063714Y-30434643D01*
X38039524Y-30470929D01*
X38015333Y-30489072D01*
X37966952Y-30507215D01*
X37918571Y-30507215D01*
X37870190Y-30489072D01*
X37846000Y-30470929D01*
X37821810Y-30434643D01*
X37821810Y-30343929D01*
X37846000Y-30289500D01*
X37821810Y-30126215D02*
X38233048Y-30126215D01*
X38281429Y-30108072D01*
X38305619Y-30089929D01*
X38329810Y-30053643D01*
X38329810Y-29981072D01*
X38305619Y-29944786D01*
X38281429Y-29926643D01*
X38233048Y-29908500D01*
X37821810Y-29908500D01*
D14*
X47906214Y-34290000D02*
X47543357Y-34544000D01*
X47906214Y-34725428D02*
X47144214Y-34725428D01*
X47144214Y-34435143D01*
X47180500Y-34362571D01*
X47216786Y-34326286D01*
X47289357Y-34290000D01*
X47398214Y-34290000D01*
X47470786Y-34326286D01*
X47507071Y-34362571D01*
X47543357Y-34435143D01*
X47543357Y-34725428D01*
X47216786Y-33999714D02*
X47180500Y-33963428D01*
X47144214Y-33890857D01*
X47144214Y-33709428D01*
X47180500Y-33636857D01*
X47216786Y-33600571D01*
X47289357Y-33564286D01*
X47361929Y-33564286D01*
X47470786Y-33600571D01*
X47906214Y-34036000D01*
X47906214Y-33564286D01*
X27722286Y-35015714D02*
X27286858Y-35015714D01*
X27504572Y-35015714D02*
X27504572Y-34253714D01*
X27432001Y-34362571D01*
X27359429Y-34435143D01*
X27286858Y-34471429D01*
X28012572Y-34326286D02*
X28048858Y-34290000D01*
X28121429Y-34253714D01*
X28302858Y-34253714D01*
X28375429Y-34290000D01*
X28411715Y-34326286D01*
X28448000Y-34398857D01*
X28448000Y-34471429D01*
X28411715Y-34580286D01*
X27976286Y-35015714D01*
X28448000Y-35015714D01*
X28665714Y-34253714D02*
X28919714Y-35015714D01*
X29173714Y-34253714D01*
%LPC*%
D16*
X41719500Y-30162500D03*
X41719500Y-32321500D03*
D17*
X43815000Y-30607000D03*
X43815000Y-32512000D03*
D18*
X49085500Y-33147000D03*
D19*
X33464500Y-26924000D03*
D18*
X36004500Y-26924000D03*
X38544500Y-26924000D03*
X41084500Y-26924000D03*
X43624500Y-26924000D03*
X46164500Y-26924000D03*
D19*
X49085500Y-30607000D03*
D18*
X49085500Y-28067000D03*
D20*
X45974000Y-34861500D03*
X43942000Y-34861500D03*
D21*
X39751000Y-30162500D03*
X39751000Y-31432500D03*
X39751000Y-32702500D03*
X39751000Y-33972500D03*
X33147000Y-33972500D03*
X33147000Y-32702500D03*
X33147000Y-31432500D03*
X33147000Y-30162500D03*
D22*
X33020000Y-28829000D03*
D23*
X46291500Y-30162500D03*
X46291500Y-32067500D03*
D24*
X46291500Y-33337500D03*
X46291500Y-28892500D03*
D25*
X28448000Y-33147000D03*
X28448000Y-28067000D03*
M02*
